<?xml version="1.0" encoding="utf-8"?>
<svg width="48" height="48" viewBox="0 0 48 48" fill="none" xmlns="http://www.w3.org/2000/svg">
  <g>
    <path d="M26 20L0 20L0 0C0 0 26 0 26 0C26.552 0 27 0.448 27 1C27 1 27 19 27 19C27 19.552 26.552 20 26 20C26 20 26 20 26 20Z" fill="#ECF0F1" transform="translate(20 17)" />
    <path d="M47 6L21 6C21 6 21 1 21 1C21 0.448 20.552 0 20 0C20 0 1 0 1 0C0.448 0 0 0.448 0 1C0 1 0 27 0 27C0 27.552 0.448 28 1 28C1 28 17 28 17 28L21 28C21 28 47 28 47 28C47.552 28 48 27.553 48 27C48 27 48 7 48 7C48 6.447 47.552 6 47 6C47 6 47 6 47 6ZM46 26L21 26L21 8L46 8L46 26L46 26Z" fill="#212121" transform="translate(0 10)" />
    <path d="M7 19C7 19 3 19 3 19C3 12.971 6.04 7.081 7.933 4C7.933 4 0 4 0 4L0 0L13 0L13 3.664C13 3.664 12.601 4.198 12.601 4.198C12.545 4.273 7 11.781 7 19C7 19 7 19 7 19Z" fill="#ECF0F1" transform="translate(4 15)" />
    <path d="M2.579 8.323L7 8.323L7 10L0.0450001 10L0.0450001 8.783L4.421 1.684L0 1.684L0 0L6.918 0L6.918 1.19L2.579 8.323Z" fill="#212121" fill-rule="evenodd" transform="translate(24 22)" />
    <rect width="2" height="9.976" fill="#212121" fill-rule="evenodd" transform="translate(33 22)" />
    <path d="M6.069 0.922001C5.456 0.311001 4.621 0 3.585 0C3.585 0 0 0 0 0L0 9.98L2.125 9.98L2.125 6.473C2.125 6.473 3.542 6.473 3.542 6.473C4.621 6.473 5.477 6.182 6.08 5.621C6.693 5.05 7 4.279 7 3.307C7 2.325 6.693 1.533 6.069 0.922001C6.069 0.922001 6.069 0.922001 6.069 0.922001ZM4.526 4.419C4.304 4.67 3.987 4.79 3.585 4.79C3.585 4.79 2.126 4.79 2.126 4.79L2.126 1.684C2.126 1.684 3.606 1.684 3.606 1.684C3.987 1.684 4.293 1.834 4.515 2.125C4.748 2.426 4.853 2.826 4.853 3.317C4.853 3.798 4.748 4.168 4.526 4.419C4.526 4.419 4.526 4.419 4.526 4.419Z" fill="#212121" transform="translate(37 22)" />
  </g>
</svg>