<?xml version="1.0" encoding="UTF-8"?>
<svg version="1.1" xmlns="http://www.w3.org/2000/svg" width="512" height="512">
<path d="M0 0 C1.3002071 -0.00623996 2.6004142 -0.01247993 3.94002151 -0.01890898 C7.51977559 -0.03549313 11.09909907 -0.02740636 14.67885399 -0.0149641 C18.55078311 -0.00587077 22.42264095 -0.01990446 26.29455566 -0.03088379 C33.86809295 -0.04862813 41.44147125 -0.04484732 49.01501465 -0.03323323 C55.17266133 -0.02418304 61.33026361 -0.02298175 67.48791504 -0.02732849 C68.36581357 -0.02794142 69.24371211 -0.02855436 70.14821362 -0.02918586 C71.93189972 -0.03046482 73.7155858 -0.03176168 75.49927187 -0.03307623 C92.2071574 -0.04447006 108.914955 -0.03138714 125.6228261 -0.00987476 C139.94488381 0.00799513 154.26681182 0.00489069 168.58886719 -0.0135498 C185.23881031 -0.03497769 201.88867645 -0.04337153 218.53863144 -0.03110075 C220.31558989 -0.02982661 222.09254836 -0.02856913 223.86950684 -0.02732849 C224.7437012 -0.02671139 225.61789557 -0.02609429 226.51858068 -0.02545848 C232.66560423 -0.02201134 238.81257877 -0.0278202 244.95959473 -0.0372467 C252.45540352 -0.04848941 259.95104485 -0.04537904 267.44683456 -0.02412373 C271.26802023 -0.01364375 275.08892715 -0.00943895 278.91011047 -0.02272034 C283.05945473 -0.03692373 287.20810112 -0.01991345 291.35742188 0 C292.55519886 -0.00892289 293.75297585 -0.01784577 294.9870491 -0.02703905 C306.26290197 0.07771189 315.18274074 3.04232672 323.67871094 10.50793457 C324.28457031 11.00937988 324.89042969 11.5108252 325.51464844 12.02746582 C331.64170559 17.52576383 336.05065683 25.41263545 337.67871094 33.50793457 C337.77097742 35.31539712 337.80955498 37.12591045 337.81293201 38.9357233 C337.81738986 40.0446236 337.8218477 41.1535239 337.82644063 42.29602724 C337.82616409 44.12327756 337.82616409 44.12327756 337.82588196 45.98744202 C337.82955865 47.28166814 337.83323533 48.57589427 337.83702344 49.90933937 C337.84703545 53.50476725 337.85075895 57.10017843 337.85341275 60.69561827 C337.85731821 64.57242073 337.86689643 68.44921 337.87562561 72.32600403 C337.89538392 81.69043053 337.90545576 91.0548581 337.9143534 100.41930023 C337.91873763 104.83053352 337.92410412 109.24176562 337.92934227 113.65299797 C337.94635447 128.31955624 337.96084802 142.98611377 337.96809101 157.6526804 C337.97000087 161.45835432 337.97192121 165.26402824 337.97387695 169.06970215 C337.97436069 170.01557023 337.97484443 170.9614383 337.97534283 171.93596905 C337.98364084 187.25398865 338.00897392 202.5719301 338.04145763 217.88991559 C338.07454502 233.62099954 338.09254132 249.3520438 338.09573525 265.08316272 C338.09789887 273.91377829 338.10662574 282.74427991 338.13219643 291.57486153 C338.15392643 299.09643422 338.16194258 306.61786529 338.15222964 314.13946582 C338.14769148 317.97479676 338.1495426 321.80983565 338.16899109 325.64512634 C338.18992842 329.81013579 338.17961648 333.97450041 338.16645813 338.13954163 C338.182912 339.94336936 338.182912 339.94336936 338.19969827 341.78363806 C338.11371474 353.07811793 335.15646076 361.99814663 327.67871094 370.50793457 C327.17726563 371.11379395 326.67582031 371.71965332 326.15917969 372.34387207 C320.66088167 378.47092922 312.77401006 382.87988046 304.67871094 384.50793457 C302.87124839 384.60020106 301.06073506 384.63877861 299.2509222 384.64215565 C297.58757175 384.64884241 297.58757175 384.64884241 295.89061826 384.65566427 C294.67245139 384.6554799 293.45428451 384.65529554 292.19920349 384.65510559 C290.90497737 384.65878228 289.61075124 384.66245897 288.27730614 384.66624707 C284.68187826 384.67625908 281.08646708 384.67998258 277.49102724 384.68263638 C273.61422478 384.68654184 269.73743551 384.69612006 265.86064148 384.70484924 C256.49621498 384.72460756 247.13178741 384.73467939 237.76734528 384.74357703 C233.35611198 384.74796126 228.94487989 384.75332775 224.53364754 384.7585659 C209.86708926 384.7755781 195.20053174 384.79007166 180.53396511 384.79731464 C176.72829118 384.7992245 172.92261726 384.80114484 169.11694336 384.80310059 C167.69814124 384.8038262 167.69814124 384.8038262 166.25067646 384.80456647 C150.93265686 384.81286447 135.6147154 384.83819756 120.29672991 384.87068126 C104.56564597 384.90376865 88.83460171 384.92176495 73.10348278 384.92495888 C64.27286722 384.9271225 55.4423656 384.93584937 46.61178398 384.96142006 C39.09021129 384.98315007 31.56878021 384.99116621 24.04717969 384.98145328 C20.21184875 384.97691512 16.37680986 384.97876623 12.54151917 384.99821472 C8.37650971 385.01915205 4.2121451 385.00884011 0.04710388 384.99568176 C-1.75672385 385.01213563 -1.75672385 385.01213563 -3.59699255 385.0289219 C-14.89147242 384.94293838 -23.81150113 381.9856844 -32.32128906 374.50793457 C-32.92714844 374.00648926 -33.53300781 373.50504395 -34.15722656 372.98840332 C-40.28470173 367.48973019 -44.69228171 359.60342363 -46.32128906 351.50793457 C-46.41436777 349.70235446 -46.45390242 347.89370475 -46.45830345 346.08573246 C-46.46337799 344.97806556 -46.46845254 343.87039866 -46.47368085 342.72916609 C-46.47417861 341.51236345 -46.47467637 340.29556082 -46.47518921 339.04188538 C-46.47957146 337.74907038 -46.48395372 336.45625539 -46.48846877 335.12426418 C-46.50042408 331.53269996 -46.50608032 327.94114917 -46.51064992 324.34956896 C-46.51661012 320.47681653 -46.52821907 316.60408012 -46.53894043 312.7313385 C-46.56345712 303.3758038 -46.57809168 294.0202638 -46.5910005 284.66470686 C-46.59471334 282.02125707 -46.59868651 279.37780781 -46.60275316 276.73435855 C-46.62799352 260.31184872 -46.65004233 243.88933803 -46.66248131 227.46681309 C-46.66541092 223.66321878 -46.66837259 219.85962451 -46.67138672 216.05603027 C-46.67250579 214.63801509 -46.67250579 214.63801509 -46.67364748 213.19135313 C-46.68629298 197.88759821 -46.7195054 182.58395969 -46.76118855 167.28025914 C-46.80365315 151.56046646 -46.82718167 135.84073328 -46.83240187 120.12088341 C-46.83581114 111.29799873 -46.8475089 102.47529585 -46.88050461 93.65246773 C-46.90856871 86.13605692 -46.91947671 78.6198652 -46.90830915 71.10340608 C-46.90313843 67.27181346 -46.90590472 63.44067915 -46.93077469 59.60915375 C-46.95757834 55.44473362 -46.94515288 51.28131269 -46.92929077 47.11683655 C-46.94317286 45.92011041 -46.95705495 44.72338427 -46.9713577 43.4903937 C-46.857279 31.28463164 -43.24617787 21.41058102 -34.63769531 12.66027832 C-24.1877139 2.95043049 -14.23675593 -0.10605727 0 0 Z M58.67871094 82.50793457 C54.8596183 88.24370323 55.19012829 93.94724762 55.1262207 100.60119629 C55.10294708 101.81909851 55.07967346 103.03700073 55.05569458 104.29180908 C55.00683576 106.94362484 54.96318341 109.59493584 54.92819405 112.24691391 C54.87152607 116.50573889 54.79226111 120.76397363 54.70994568 125.02236938 C54.52240281 134.89726337 54.36266548 144.77256926 54.20506287 154.64797974 C54.02791318 165.7448892 53.8373366 176.84141922 53.62011719 187.93762207 C53.60611767 188.66583003 53.59211816 189.39403799 53.57769442 190.14431286 C53.09737065 214.88191998 51.77359271 239.45008487 49.75435162 264.11379433 C46.91664808 283.69021451 46.91664808 283.69021451 52.67871094 301.50793457 C57.53334799 306.11983977 61.9581493 308.1827461 68.67871094 308.50793457 C75.81824542 307.54375307 79.91233496 305.02239696 84.40136719 299.44543457 C86.89720111 295.65970482 86.91663437 292.07481399 87.15942383 287.64978027 C87.19858414 286.95683868 87.23774445 286.26389709 87.27809143 285.54995728 C87.40644517 283.26140946 87.52892889 280.9725871 87.65136719 278.68371582 C87.73925777 277.09614594 87.82751435 275.50859628 87.91612244 273.92106628 C88.14828283 269.74391861 88.37546649 265.56651452 88.60162354 261.38903809 C88.83330526 257.12577024 89.06968062 252.86276296 89.30566406 248.59973145 C89.76794695 240.23604735 90.22497388 231.87208661 90.67871094 223.50793457 C91.24913116 223.46316483 91.81955139 223.41839508 92.40725708 223.37226868 C99.61110389 222.73674046 106.63375957 221.49819645 113.73339844 220.14465332 C116.29779003 219.6658599 118.86233036 219.18786259 121.42700195 218.71057129 C122.76937919 218.45990274 124.11175589 218.20923132 125.45413208 217.95855713 C148.51665801 213.65999083 171.48858104 209.77990062 194.88793945 207.81408691 C197.24972427 207.55499513 199.39989224 207.16079463 201.67871094 206.50793457 C201.66300049 207.98773804 201.66300049 207.98773804 201.64697266 209.49743652 C201.46241863 228.76987831 201.53504806 248.02858148 202.31549072 267.2885437 C202.3906923 269.17780603 202.45954754 271.06733212 202.52191162 272.95706177 C202.61222265 275.61324599 202.72766806 278.26714623 202.85058594 280.92199707 C202.87369843 281.70472488 202.89681091 282.4874527 202.92062378 283.29389954 C203.24758853 289.3240993 205.17414757 293.17458159 209.67871094 297.37121582 C210.66871094 298.0885791 210.66871094 298.0885791 211.67871094 298.82043457 C212.33871094 299.31156738 212.99871094 299.8027002 213.67871094 300.30871582 C217.96424413 302.8783617 222.78137345 303.13123207 227.67871094 302.50793457 C233.85590857 300.58768212 238.10522712 296.8372478 241.67871094 291.50793457 C242.89645682 287.85469691 242.86940911 284.50085498 242.86621094 280.69543457 C242.86717773 279.44742065 242.86717773 279.44742065 242.86816406 278.17419434 C242.81890509 271.95356985 242.44248396 265.79186955 241.95996094 259.59118652 C239.43222847 226.82501561 240.66343012 194.11177444 242.05371094 161.32043457 C242.08538235 160.5641275 242.11705376 159.80782043 242.14968491 159.02859497 C242.77310873 144.15891195 243.41671351 129.29079722 244.65527344 114.45715332 C244.72757172 113.5652681 244.79987 112.67338287 244.87435913 111.75447083 C245.31461804 106.89285024 246.08192057 102.26793943 247.28939819 97.5358429 C248.21602063 92.70911841 247.28620521 88.69955796 245.05371094 84.32043457 C240.88103201 79.37910427 237.20062731 76.43660727 230.67871094 75.44543457 C226.73313781 75.26636166 223.67980632 75.64713825 220.32714844 77.97668457 C208.76678742 88.71521898 203.80278835 106.30967552 203.14718628 121.6151123 C203.11376129 122.59036865 203.0803363 123.565625 203.04589844 124.57043457 C202.98355515 126.11743042 202.98355515 126.11743042 202.91995239 127.69567871 C202.7902396 130.96618577 202.67201322 134.23699713 202.55371094 137.50793457 C202.46718068 139.70327514 202.37994741 141.89858813 202.29199219 144.09387207 C201.94808553 152.90361567 201.62557918 161.69032328 201.67871094 170.50793457 C200.39988037 170.48183105 200.39988037 170.48183105 199.09521484 170.4552002 C190.6195139 170.35768494 182.44963272 170.88052281 174.05371094 172.00793457 C172.75828369 172.17809082 171.46285645 172.34824707 170.12817383 172.52355957 C153.57477158 174.76744324 137.16178234 177.91674658 120.74829102 180.9987793 C110.73311449 182.87912474 100.70617556 184.69445014 90.67871094 186.50793457 C90.73406006 185.44397461 90.78940918 184.38001465 90.84643555 183.28381348 C92.08354152 159.3642333 93.16501968 135.45482557 93.67871094 111.50793457 C93.70739258 110.36066895 93.73607422 109.21340332 93.765625 108.03137207 C93.83798688 104.96103023 93.8883422 101.89134232 93.92871094 98.82043457 C93.9501416 97.95974365 93.97157227 97.09905273 93.99365234 96.21228027 C94.02707153 90.11946758 93.12449606 85.36521434 89.03027344 80.58215332 C83.715993 76.3138964 79.81854665 74.04432841 72.72949219 74.25793457 C66.65803774 74.99807378 62.51749839 77.92271622 58.67871094 82.50793457 Z " fill="#4BAE4F" transform="translate(110.3212890625,63.4920654296875)"/>
</svg>
