<?xml version="1.0" encoding="UTF-8"?>
<svg version="1.1" xmlns="http://www.w3.org/2000/svg" width="256" height="256">
<path d="M0 0 C35.97 0 71.94 0 109 0 C109 35.64 109 71.28 109 108 C73.03 108 37.06 108 0 108 C0 72.36 0 36.72 0 0 Z " fill="#00D29F" transform="translate(25,139)"/>
<path d="M0 0 C35.64 0 71.28 0 108 0 C108 35.97 108 71.94 108 109 C72.36 109 36.72 109 0 109 C0 73.03 0 37.06 0 0 Z " fill="#FC5C7F" transform="translate(8,25)"/>
<path d="M0 0 C35.97 0 71.94 0 109 0 C109 35.64 109 71.28 109 108 C73.03 108 37.06 108 0 108 C0 72.36 0 36.72 0 0 Z " fill="#FFB800" transform="translate(121,8)"/>
<path d="M0 0 C35.97 0 71.94 0 109 0 C109.165 12.395625 109.33 24.79125 109.5 37.5625 C109.57283203 41.46650635 109.64566406 45.3705127 109.72070312 49.39282227 C109.75683594 54.1854248 109.75683594 54.1854248 109.7635498 56.4339447 C109.77578042 57.99382314 109.80380754 59.55362904 109.84460449 61.11302185 C110.17113709 74.25916164 110.17113709 74.25916164 107.3664093 78.42825317 C105.33955092 80.20344632 103.29071979 81.58945295 101 83 C99.97979235 83.92107184 98.98593021 84.87264359 98.02807617 85.85839844 C96.62005593 87.27458804 95.21191615 88.69066066 93.80183411 90.10479736 C92.26131124 91.65082051 90.72433488 93.20031168 89.1875 94.75 C88.14151272 95.80101685 87.09529022 96.85179966 86.04882812 97.90234375 C84.1394125 99.81985666 82.23164532 101.7389556 80.32495117 103.65917969 C79.55771729 104.43165039 78.7904834 105.20412109 78 106 C77.60607056 106.53625504 77.21214111 107.07251007 76.80627441 107.62501526 C74.02653653 109.74102662 71.12585957 109.3928633 67.7746582 109.34057617 C66.65899491 109.34111858 66.65899491 109.34111858 65.52079296 109.34167194 C63.11384832 109.33943322 60.70760116 109.31659046 58.30078125 109.29296875 C56.81457861 109.28855775 55.32837132 109.28549731 53.84216309 109.28381348 C48.3322043 109.26808652 42.8223453 109.22620284 37.3125 109.1875 C18.8428125 109.0946875 18.8428125 109.0946875 0 109 C0 73.03 0 37.06 0 0 Z " fill="#00A4EE" transform="translate(139,121)"/>
<path d="M0 0 C11.22 0 22.44 0 34 0 C28.41736227 5.58263773 28.41736227 5.58263773 26.06152344 7.92260742 C23.22846221 10.73797927 20.39836423 13.55630838 17.56933594 16.37573242 C16.35016381 17.58983284 15.13010208 18.80304055 13.90917969 20.01538086 C12.140237 21.77224319 10.37450078 23.53227266 8.609375 25.29296875 C8.0615033 25.83567917 7.51363159 26.37838959 6.94915771 26.93754578 C4.12329227 29.70236586 4.12329227 29.70236586 2 33 C1.34 33 0.68 33 0 33 C0 22.11 0 11.22 0 0 Z " fill="#0081BB" transform="translate(214,196)"/>
<path d="M0 0 C0.33 0 0.66 0 1 0 C1 35.31 1 70.62 1 107 C0.67 107 0.34 107 0 107 C0 71.69 0 36.38 0 0 Z " fill="#00D2A0" transform="translate(23,140)"/>
<path d="M0 0 C35.31 0 70.62 0 107 0 C107 0.33 107 0.66 107 1 C71.69 1 36.38 1 0 1 C0 0.67 0 0.34 0 0 Z " fill="#00D19F" transform="translate(26,137)"/>
<path d="M0 0 C0.33 0 0.66 0 1 0 C1 35.31 1 70.62 1 107 C0.67 107 0.34 107 0 107 C0 71.69 0 36.38 0 0 Z " fill="#00A4EC" transform="translate(137,122)"/>
<path d="M0 0 C35.31 0 70.62 0 107 0 C107 0.33 107 0.66 107 1 C71.69 1 36.38 1 0 1 C0 0.67 0 0.34 0 0 Z " fill="#FFB900" transform="translate(122,117)"/>
<path d="M0 0 C0.33 0 0.66 0 1 0 C1 35.31 1 70.62 1 107 C0.67 107 0.34 107 0 107 C0 71.69 0 36.38 0 0 Z " fill="#FC5A80" transform="translate(117,26)"/>
<path d="M0 0 C35.31 0 70.62 0 107 0 C107 0.33 107 0.66 107 1 C71.69 1 36.38 1 0 1 C0 0.67 0 0.34 0 0 Z " fill="#FC5B80" transform="translate(8,23)"/>
<path d="M0 0 C0.33 0 0.66 0 1 0 C1 35.31 1 70.62 1 107 C0.67 107 0.34 107 0 107 C0 71.69 0 36.38 0 0 Z " fill="#FFB900" transform="translate(231,8)"/>
<path d="M0 0 C0.33 0 0.66 0 1 0 C1 34.98 1 69.96 1 106 C0.67 106 0.34 106 0 106 C0 71.02 0 36.04 0 0 Z " fill="#00D29F" transform="translate(135,141)"/>
<path d="M0 0 C24.75 0 49.5 0 75 0 C75 0.33 75 0.66 75 1 C50.25 1 25.5 1 0 1 C0 0.67 0 0.34 0 0 Z " fill="#00A4EE" transform="translate(140,231)"/>
<path d="" fill="#0081BF" transform="translate(0,0)"/>
<path d="M0 0 C2 1 2 1 2 1 Z " fill="#0082C0" transform="translate(225,219)"/>
<path d="" fill="#0082C0" transform="translate(0,0)"/>
<path d="M0 0 C2 1 2 1 2 1 Z " fill="#0082BF" transform="translate(239,205)"/>
<path d="" fill="#008BCB" transform="translate(0,0)"/>
<path d="" fill="#0086C3" transform="translate(0,0)"/>
<path d="" fill="#0081BB" transform="translate(0,0)"/>
<path d="" fill="#0081BB" transform="translate(0,0)"/>
<path d="" fill="#0081BA" transform="translate(0,0)"/>
<path d="" fill="#0083C2" transform="translate(0,0)"/>
<path d="" fill="#0082C1" transform="translate(0,0)"/>
<path d="" fill="#0082C1" transform="translate(0,0)"/>
<path d="" fill="#0083C3" transform="translate(0,0)"/>
<path d="" fill="#0081BA" transform="translate(0,0)"/>
<path d="" fill="#0081BB" transform="translate(0,0)"/>
<path d="" fill="#0081BB" transform="translate(0,0)"/>
<path d="" fill="#0081BB" transform="translate(0,0)"/>
<path d="" fill="#0081BB" transform="translate(0,0)"/>
<path d="" fill="#0081BB" transform="translate(0,0)"/>
<path d="" fill="#0081BA" transform="translate(0,0)"/>
<path d="" fill="#0083C3" transform="translate(0,0)"/>
<path d="" fill="#0082C1" transform="translate(0,0)"/>
<path d="" fill="#0082C1" transform="translate(0,0)"/>
<path d="" fill="#0083C3" transform="translate(0,0)"/>
<path d="" fill="#0081BA" transform="translate(0,0)"/>
<path d="" fill="#0081BB" transform="translate(0,0)"/>
<path d="" fill="#0081BB" transform="translate(0,0)"/>
<path d="" fill="#0081BB" transform="translate(0,0)"/>
<path d="" fill="#0081BB" transform="translate(0,0)"/>
<path d="" fill="#0081BB" transform="translate(0,0)"/>
<path d="" fill="#0084C1" transform="translate(0,0)"/>
</svg>
