<?xml version="1.0" encoding="UTF-8"?>
<svg version="1.1" xmlns="http://www.w3.org/2000/svg" width="319" height="323">
<path d="M0 0 C105.27 0 210.54 0 319 0 C319 106.59 319 213.18 319 323 C213.73 323 108.46 323 0 323 C0 216.41 0 109.82 0 0 Z " fill="#E91C24" transform="translate(0,0)"/>
<path d="M0 0 C13.65743207 -0.06983941 27.3148209 -0.12298251 40.9723959 -0.15543652 C47.31572768 -0.17102117 53.65893632 -0.19212648 60.00219727 -0.22631836 C66.13601435 -0.25917034 72.26971379 -0.276907 78.40361214 -0.28463173 C80.731302 -0.29012921 83.0589862 -0.30086286 85.38662529 -0.31719017 C98.60015764 -0.40610063 111.0862388 0.06022159 124 3 C124 3.66 124 4.32 124 5 C127.3 5.99 130.6 6.98 134 8 C134 8.66 134 9.32 134 10 C134.70125 10.226875 135.4025 10.45375 136.125 10.6875 C139.78715818 12.35935482 142.07857302 14.21136516 145 17 C145.6875 19.25 145.6875 19.25 146 21 C146.99 21.33 147.98 21.66 149 22 C150.3515625 24.328125 150.3515625 24.328125 151.625 27.25 C152.05039063 28.20390625 152.47578125 29.1578125 152.9140625 30.140625 C155.03471481 35.72450087 155.18262492 40.90877686 155.1875 46.8125 C155.19974609 47.58142578 155.21199219 48.35035156 155.22460938 49.14257812 C155.23797014 54.42008198 154.46326989 58.92771664 153 64 C152.34 64 151.68 64 151 64 C150.87625 64.7425 150.7525 65.485 150.625 66.25 C150.04513299 68.80141485 149.26291261 70.7267573 148 73 C147.34 73 146.68 73 146 73 C145.72929687 73.60070312 145.45859375 74.20140625 145.1796875 74.8203125 C141.51711427 81.58758356 134.1630852 84.6170376 127.4765625 87.703125 C124.87821965 88.75614638 124.87821965 88.75614638 124 91 C124.89138672 91.00386719 124.89138672 91.00386719 125.80078125 91.0078125 C137.26947331 91.54289922 146.2904883 97.79410123 154 106 C158.22822798 111.22067269 159.97764246 116.40808271 161 123 C161.66 123 162.32 123 163 123 C164.68343411 131.83802906 164.6928108 141.17320081 163 150 C162.34 150 161.68 150 161 150 C160.95875 150.928125 160.9175 151.85625 160.875 152.8125 C159.50367282 162.09244008 153.19601496 170.31956364 146 176 C135.48664122 183 135.48664122 183 131 183 C131 183.66 131 184.32 131 185 C128.16768453 185.65058529 125.33427799 186.29556713 122.5 186.9375 C121.70851563 187.11990234 120.91703125 187.30230469 120.1015625 187.49023438 C119.31523437 187.66748047 118.52890625 187.84472656 117.71875 188.02734375 C117.00654297 188.18968506 116.29433594 188.35202637 115.56054688 188.51928711 C109.19564207 189.71422395 103.02135406 190.14498121 96.56445312 190.11352539 C95.36301163 190.11374443 95.36301163 190.11374443 94.13729858 190.1139679 C91.51858711 190.1132773 88.89994888 190.10552529 86.28125 190.09765625 C84.45422403 190.09578903 82.62719755 190.09436656 80.8001709 190.09336853 C76.01296585 190.08956726 71.22579159 190.07975758 66.43859863 190.06866455 C61.54500749 190.05839884 56.65141133 190.05385989 51.7578125 190.04882812 C42.17186154 190.03813299 32.58593334 190.02108553 23 190 C22.99576806 189.1490894 22.99153612 188.29817881 22.98717594 187.42148304 C22.88390256 166.72359871 22.77526973 146.02574856 22.66066074 125.32792377 C22.60536633 115.31864396 22.55189053 105.30936058 22.50268555 95.30004883 C22.4597974 86.57664829 22.41350771 77.8532736 22.36312145 69.12991303 C22.33655784 64.51034149 22.3117057 59.89077496 22.29092598 55.27117348 C22.27131562 50.92347735 22.24715871 46.57583023 22.21950912 42.22817802 C22.21016198 40.63224301 22.20247835 39.03629725 22.19658089 37.44034576 C22.1882799 35.26126841 22.17399226 33.08230876 22.15821838 30.90327454 C22.15176583 29.68374242 22.14531328 28.4642103 22.1386652 27.20772266 C22.0140818 24.32575238 21.80748818 21.76850482 21 19 C19.35686816 18.27726908 17.68260396 17.62535281 16 17 C13.27920258 15.03399491 10.77517699 12.83392168 8.25 10.625 C7.22326172 9.75875 7.22326172 9.75875 6.17578125 8.875 C5.52480469 8.31039062 4.87382813 7.74578125 4.203125 7.1640625 C3.61176758 6.65311035 3.02041016 6.1421582 2.41113281 5.61572266 C0.78587445 3.75482995 0.51608346 2.37989665 0 0 Z " fill="#FEFCFC" transform="translate(71,69)"/>
<path d="M0 0 C11.0446875 -0.061875 11.0446875 -0.061875 22.3125 -0.125 C24.61387939 -0.14320801 26.91525879 -0.16141602 29.28637695 -0.18017578 C31.14534269 -0.18602631 33.00431103 -0.19112053 34.86328125 -0.1953125 C35.80022827 -0.20554443 36.73717529 -0.21577637 37.70251465 -0.22631836 C44.32751662 -0.22803535 50.5244602 0.61589794 57 2 C57 2.66 57 3.32 57 4 C57.73863281 4.10054687 58.47726563 4.20109375 59.23828125 4.3046875 C63.89173708 5.47627893 66.84549781 8.49105937 70 12 C73.47859756 19.10213668 73.16276996 29.80530514 71 37.375 C70.67 38.24125 70.34 39.1075 70 40 C69.34 40 68.68 40 68 40 C67.835 40.721875 67.67 41.44375 67.5 42.1875 C65.35758482 46.20452846 62.0813521 48.10075695 58 50 C57.01 50 56.02 50 55 50 C55 50.66 55 51.32 55 52 C47.68431248 53.55183083 40.77167463 54.28084037 33.30078125 54.1953125 C32.44689819 54.19329834 31.59301514 54.19128418 30.71325684 54.18920898 C27.57961512 54.1788904 24.44605109 54.15097024 21.3125 54.125 C10.7628125 54.063125 10.7628125 54.063125 0 54 C0 36.18 0 18.36 0 0 Z " fill="#EC1D24" transform="translate(128,176)"/>
<path d="M0 0 C1.6874269 0.00015917 3.37485866 0.00585622 5.06225586 0.01586914 C6.39189613 0.01799156 6.39189613 0.01799156 7.74839783 0.02015686 C10.59133215 0.02577324 13.43418892 0.03832848 16.27709961 0.05102539 C18.19962452 0.05603828 20.12215065 0.06060155 22.04467773 0.06469727 C26.7680151 0.07574798 31.49129419 0.09302356 36.21459961 0.11352539 C36.21459961 0.77352539 36.21459961 1.43352539 36.21459961 2.11352539 C37.20459961 2.03102539 38.19459961 1.94852539 39.21459961 1.86352539 C45.75989755 1.86352539 51.57283551 5.74480623 56.21459961 10.11352539 C58.270167 13.14793439 58.41589709 15.49017082 58.21459961 19.11352539 C58.87459961 19.11352539 59.53459961 19.11352539 60.21459961 19.11352539 C60.21459961 22.41352539 60.21459961 25.71352539 60.21459961 29.11352539 C59.55459961 29.11352539 58.89459961 29.11352539 58.21459961 29.11352539 C58.02897461 30.75321289 58.02897461 30.75321289 57.83959961 32.42602539 C57.21459961 36.11352539 57.21459961 36.11352539 55.21459961 39.11352539 C54.55459961 39.11352539 53.89459961 39.11352539 53.21459961 39.11352539 C52.88459961 40.10352539 52.55459961 41.09352539 52.21459961 42.11352539 C48.51874295 44.33103938 46.58451588 45.11352539 42.21459961 45.11352539 C42.21459961 45.77352539 42.21459961 46.43352539 42.21459961 47.11352539 C36.39479078 47.95448777 30.77738637 48.2485363 24.90209961 48.21118164 C24.04777344 48.20976669 23.19344727 48.20835175 22.31323242 48.20689392 C19.61365088 48.20134501 16.91415562 48.18880236 14.21459961 48.17602539 C12.3721529 48.17100378 10.52970488 48.16644203 8.68725586 48.16235352 C4.19633775 48.15139238 -0.29451675 48.13416364 -4.78540039 48.11352539 C-4.81066984 41.43832199 -4.82823307 34.76313082 -4.84033203 28.08789062 C-4.84537364 25.81509948 -4.85220676 23.54231159 -4.86083984 21.26953125 C-4.872913 18.01048988 -4.87863026 14.75149122 -4.88305664 11.49243164 C-4.88821793 10.4695253 -4.89337921 9.44661896 -4.8986969 8.39271545 C-4.89877243 7.45181564 -4.89884796 6.51091583 -4.89892578 5.54150391 C-4.90114639 4.70877457 -4.903367 3.87604523 -4.90565491 3.01808167 C-4.68121429 -0.53654395 -3.71457353 0.11140127 0 0 Z " fill="#EC1D25" transform="translate(132.785400390625,97.886474609375)"/>
<path d="M0 0 C0 0.66 0 1.32 0 2 C-0.99 2 -1.98 2 -3 2 C-3 3.98 -3 5.96 -3 8 C-5.64 7.67 -8.28 7.34 -11 7 C-10 4 -10 4 -8.22265625 2.83203125 C-7.50980469 2.49558594 -6.79695312 2.15914062 -6.0625 1.8125 C-5.35222656 1.46832031 -4.64195312 1.12414062 -3.91015625 0.76953125 C-2 0 -2 0 0 0 Z " fill="#EF3E43" transform="translate(206,153)"/>
<path d="M0 0 C0.33 0 0.66 0 1 0 C1 7.26 1 14.52 1 22 C0.01 22.33 -0.98 22.66 -2 23 C-1.84660156 22.19304687 -1.69320312 21.38609375 -1.53515625 20.5546875 C-0.9111048 16.40952821 -0.65372796 12.3077704 -0.4375 8.125 C-0.39431641 7.34125 -0.35113281 6.5575 -0.30664062 5.75 C-0.20146649 3.83349351 -0.10032075 1.91676667 0 0 Z " fill="#EE3538" transform="translate(226,108)"/>
</svg>
