<svg xmlns="http://www.w3.org/2000/svg" xmlns:v="https://svgstorm.com"
viewBox = "0 0 256 256"
width="256"
height="256">
<g fill="None" fill-opacity="0.0" stroke="#000000" stroke-opacity="0.00" stroke-width="0.3"><path d="
M 0.00 256.00 
L 256.00 256.00
L 256.00 0.00
L 0.00 0.00
L 0.00 256.00
M 74.00 154.00 
C 68.08 143.69 63.48 134.84 61.07 122.93 C 58.66 111.02 59.75 92.88 62.33 81.33 C 64.90 69.78 70.21 60.14 76.75 50.75 C 83.30 41.37 89.76 34.67 99.23 28.23 C 108.70 21.79 118.49 16.61 130.07 14.07 C 141.65 11.54 159.94 10.87 171.67 13.33 C 183.40 15.79 193.34 20.68 203.23 26.77 C 213.12 32.86 219.10 39.69 226.30 48.70 C 233.50 57.70 238.09 67.39 241.32 78.68 C 244.56 89.97 245.91 107.17 244.00 119.00 C 242.09 130.83 237.66 141.96 231.75 151.75 C 225.83 161.53 220.66 168.25 211.75 175.75 C 202.84 183.26 193.94 187.54 182.92 191.92 C 171.91 196.31 156.03 197.32 143.98 196.02 C 131.92 194.72 119.05 192.74 108.77 186.23 C 98.49 179.72 93.07 194.36 84.75 200.75 C 76.44 207.15 70.80 216.37 62.25 223.25 C 53.70 230.12 49.17 240.36 37.98 243.98 C 26.78 247.59 13.22 239.66 12.00 227.00 C 10.79 214.33 20.42 206.61 28.75 198.75 C 37.09 190.89 43.27 183.88 51.25 176.25 C 59.23 168.62 65.79 161.04 74.00 154.00 Z"/>
</g>
<g fill="None" fill-opacity="0.0" stroke="#963800" stroke-opacity="0.93" stroke-width="0.3"><path d="
M 74.00 154.00 
C 65.79 161.04 59.23 168.62 51.25 176.25 C 43.27 183.88 37.09 190.89 28.75 198.75 C 20.42 206.61 10.79 214.33 12.00 227.00 C 13.22 239.66 26.78 247.59 37.98 243.98 C 49.17 240.36 53.70 230.12 62.25 223.25 C 70.80 216.37 76.44 207.15 84.75 200.75 C 93.07 194.36 98.49 179.72 108.77 186.23 C 119.05 192.74 131.92 194.72 143.98 196.02 C 156.03 197.32 171.91 196.31 182.92 191.92 C 193.94 187.54 202.84 183.26 211.75 175.75 C 220.66 168.25 225.83 161.53 231.75 151.75 C 237.66 141.96 242.09 130.83 244.00 119.00 C 245.91 107.17 244.56 89.97 241.32 78.68 C 238.09 67.39 233.50 57.70 226.30 48.70 C 219.10 39.69 213.12 32.86 203.23 26.77 C 193.34 20.68 183.40 15.79 171.67 13.33 C 159.94 10.87 141.65 11.54 130.07 14.07 C 118.49 16.61 108.70 21.79 99.23 28.23 C 89.76 34.67 83.30 41.37 76.75 50.75 C 70.21 60.14 64.90 69.78 62.33 81.33 C 59.75 92.88 58.66 111.02 61.07 122.93 C 63.48 134.84 68.08 143.69 74.00 154.00
M 102.00 177.00 
C 90.36 188.22 77.35 203.93 65.25 214.25 C 53.15 224.56 38.53 251.38 21.75 236.25 C 4.98 221.12 29.99 203.61 41.25 192.25 C 52.51 180.88 67.08 166.09 79.00 155.00
C 45.40 103.54 71.66 32.33 133.02 18.02 C 194.39 3.72 253.11 63.67 238.22 124.22 C 223.34 184.78 152.61 211.74 102.00 177.00 Z"/>
</g>
<g fill="None" fill-opacity="0.0" stroke="#FD7F00" stroke-opacity="1.00" stroke-width="0.3"><path d="
M 102.00 177.00 
C 152.61 211.74 223.34 184.78 238.22 124.22 C 253.11 63.67 194.39 3.72 133.02 18.02 C 71.66 32.33 45.40 103.54 79.00 155.00
C 67.08 166.09 52.51 180.88 41.25 192.25 C 29.99 203.61 4.98 221.12 21.75 236.25 C 38.53 251.38 53.15 224.56 65.25 214.25 C 77.35 203.93 90.36 188.22 102.00 177.00
M 158.00 48.00 
C 199.26 52.99 222.42 102.69 197.75 136.75 C 173.07 170.80 121.73 166.54 102.23 129.77 C 82.73 93.00 114.40 42.73 158.00 48.00 Z"/>
</g>
<g fill="None" fill-opacity="0.0" stroke="#973800" stroke-opacity="0.93" stroke-width="0.3"><path d="
M 158.00 48.00 
C 114.40 42.73 82.73 93.00 102.23 129.77 C 121.73 166.54 173.07 170.80 197.75 136.75 C 222.42 102.69 199.26 52.99 158.00 48.00
M 156.00 52.00 
C 193.67 55.81 217.44 100.82 195.08 133.08 C 172.71 165.33 125.75 161.50 106.75 128.25 C 87.74 95.01 116.60 48.02 156.00 52.00 Z"/>
</g>
<g fill="None" fill-opacity="0.0" stroke="#000000" stroke-opacity="0.00" stroke-width="0.3"><path d="
M 156.00 52.00 
C 116.60 48.02 87.74 95.01 106.75 128.25 C 125.75 161.50 172.71 165.33 195.08 133.08 C 217.44 100.82 193.67 55.81 156.00 52.00 Z"/>
</g>
<g fill="#000000" fill-opacity="0.00" stroke="None">
<path d="
M 0.00 256.00 
L 256.00 256.00
L 256.00 0.00
L 0.00 0.00
L 0.00 256.00
M 74.00 154.00 
C 68.08 143.69 63.48 134.84 61.07 122.93 C 58.66 111.02 59.75 92.88 62.33 81.33 C 64.90 69.78 70.21 60.14 76.75 50.75 C 83.30 41.37 89.76 34.67 99.23 28.23 C 108.70 21.79 118.49 16.61 130.07 14.07 C 141.65 11.54 159.94 10.87 171.67 13.33 C 183.40 15.79 193.34 20.68 203.23 26.77 C 213.12 32.86 219.10 39.69 226.30 48.70 C 233.50 57.70 238.09 67.39 241.32 78.68 C 244.56 89.97 245.91 107.17 244.00 119.00 C 242.09 130.83 237.66 141.96 231.75 151.75 C 225.83 161.53 220.66 168.25 211.75 175.75 C 202.84 183.26 193.94 187.54 182.92 191.92 C 171.91 196.31 156.03 197.32 143.98 196.02 C 131.92 194.72 119.05 192.74 108.77 186.23 C 98.49 179.72 93.07 194.36 84.75 200.75 C 76.44 207.15 70.80 216.37 62.25 223.25 C 53.70 230.12 49.17 240.36 37.98 243.98 C 26.78 247.59 13.22 239.66 12.00 227.00 C 10.79 214.33 20.42 206.61 28.75 198.75 C 37.09 190.89 43.27 183.88 51.25 176.25 C 59.23 168.62 65.79 161.04 74.00 154.00 Z"/>
</g>
<g fill="#963800" fill-opacity="0.93" stroke="None">
<path d="
M 74.00 154.00 
C 65.79 161.04 59.23 168.62 51.25 176.25 C 43.27 183.88 37.09 190.89 28.75 198.75 C 20.42 206.61 10.79 214.33 12.00 227.00 C 13.22 239.66 26.78 247.59 37.98 243.98 C 49.17 240.36 53.70 230.12 62.25 223.25 C 70.80 216.37 76.44 207.15 84.75 200.75 C 93.07 194.36 98.49 179.72 108.77 186.23 C 119.05 192.74 131.92 194.72 143.98 196.02 C 156.03 197.32 171.91 196.31 182.92 191.92 C 193.94 187.54 202.84 183.26 211.75 175.75 C 220.66 168.25 225.83 161.53 231.75 151.75 C 237.66 141.96 242.09 130.83 244.00 119.00 C 245.91 107.17 244.56 89.97 241.32 78.68 C 238.09 67.39 233.50 57.70 226.30 48.70 C 219.10 39.69 213.12 32.86 203.23 26.77 C 193.34 20.68 183.40 15.79 171.67 13.33 C 159.94 10.87 141.65 11.54 130.07 14.07 C 118.49 16.61 108.70 21.79 99.23 28.23 C 89.76 34.67 83.30 41.37 76.75 50.75 C 70.21 60.14 64.90 69.78 62.33 81.33 C 59.75 92.88 58.66 111.02 61.07 122.93 C 63.48 134.84 68.08 143.69 74.00 154.00
M 102.00 177.00 
C 90.36 188.22 77.35 203.93 65.25 214.25 C 53.15 224.56 38.53 251.38 21.75 236.25 C 4.98 221.12 29.99 203.61 41.25 192.25 C 52.51 180.88 67.08 166.09 79.00 155.00
C 45.40 103.54 71.66 32.33 133.02 18.02 C 194.39 3.72 253.11 63.67 238.22 124.22 C 223.34 184.78 152.61 211.74 102.00 177.00 Z"/>
</g>
<g fill="#FD7F00" fill-opacity="1.00" stroke="None">
<path d="
M 102.00 177.00 
C 152.61 211.74 223.34 184.78 238.22 124.22 C 253.11 63.67 194.39 3.72 133.02 18.02 C 71.66 32.33 45.40 103.54 79.00 155.00
C 67.08 166.09 52.51 180.88 41.25 192.25 C 29.99 203.61 4.98 221.12 21.75 236.25 C 38.53 251.38 53.15 224.56 65.25 214.25 C 77.35 203.93 90.36 188.22 102.00 177.00
M 158.00 48.00 
C 199.26 52.99 222.42 102.69 197.75 136.75 C 173.07 170.80 121.73 166.54 102.23 129.77 C 82.73 93.00 114.40 42.73 158.00 48.00 Z"/>
</g>
<g fill="#973800" fill-opacity="0.93" stroke="None">
<path d="
M 158.00 48.00 
C 114.40 42.73 82.73 93.00 102.23 129.77 C 121.73 166.54 173.07 170.80 197.75 136.75 C 222.42 102.69 199.26 52.99 158.00 48.00
M 156.00 52.00 
C 193.67 55.81 217.44 100.82 195.08 133.08 C 172.71 165.33 125.75 161.50 106.75 128.25 C 87.74 95.01 116.60 48.02 156.00 52.00 Z"/>
</g>
<g fill="#000000" fill-opacity="0.00" stroke="None">
<path d="
M 156.00 52.00 
C 116.60 48.02 87.74 95.01 106.75 128.25 C 125.75 161.50 172.71 165.33 195.08 133.08 C 217.44 100.82 193.67 55.81 156.00 52.00 Z"/>
</g>
</svg>