<?xml version="1.0" encoding="utf-8"?>
<!DOCTYPE svg PUBLIC "-//W3C//DTD SVG 1.0//EN" "http://www.w3.org/TR/2001/REC-SVG-20010904/DTD/svg10.dtd">
<svg version="1.0" xmlns="http://www.w3.org/2000/svg" width="445px" height="367px" viewBox="0 0 445 367" preserveAspectRatio="xMidYMid meet">
 <g fill="#030300">
  <path d="M359 358.5 l-8.5 -8.5 -153 0 -153 0 -6 -2.8 c-7 -3.3 -11.7 -8.3 -15.4 -16.2 l-2.6 -5.5 0 -141.5 c0 -139 0 -141.6 2 -146.9 2.5 -6.7 8.9 -14 14.7 -16.8 8.9 -4.3 11.4 -4.4 93.3 -4.1 l78 0.3 5.8 2.4 c12 5 18.7 14 20.2 26.9 0.5 4.5 1.2 6.5 2.5 7.2 1.2 0.6 30.9 1 80.3 1 76.8 0 78.6 0 85.3 2.1 5.6 1.7 7.7 3.1 12.4 7.7 9.8 9.8 9 -2.1 9 139.3 l0 123.7 -3.3 6.3 c-5.5 10.7 -16.1 16.9 -28.9 16.9 -5 0 -5.9 0.3 -5.4 1.6 1.2 3.2 -4.3 0.9 -10.8 -4.6 -5.8 -4.9 -6.5 -5.9 -6.5 -9.2 l-0.1 -3.8 11.3 0 c6.1 0 13 -0.5 15.2 -1.1 5.9 -1.7 11 -7.3 12.4 -13.7 1.5 -7.1 1.6 -221.8 0 -231.1 -1.4 -8.6 -3.1 -11.5 -8.7 -14.8 l-4.7 -2.8 -82 -0.5 c-79.7 -0.5 -82.1 -0.6 -85.4 -2.5 -5.3 -3.1 -7 -6.2 -8.6 -15.9 -1.6 -10 -3.8 -13.4 -11 -16.7 -3.8 -1.8 -8.2 -1.9 -80.3 -1.9 -61.8 0 -76.9 0.3 -79.5 1.4 -4.3 1.8 -9.4 7.7 -10.7 12.5 -0.7 2.7 -0.9 46.4 -0.8 138.8 l0.3 134.8 2.7 4.7 c1.9 3.2 4.1 5.2 7.1 6.7 l4.3 2.1 138 -0.2 137.9 -0.3 -23 -22.5 c-12.6 -12.4 -41.6 -40.7 -64.4 -63 -22.7 -22.3 -41.6 -40.6 -42 -40.8 -0.4 -0.1 -3.8 13.2 -7.7 29.5 l-7 29.8 -3.5 0.3 c-3.9 0.3 -0.2 5 -31.2 -40.3 -7.2 -10.4 -13.3 -19.4 -13.7 -19.8 -0.4 -0.5 -14.6 0.3 -31.7 1.7 -17 1.4 -33.5 2.6 -36.6 2.6 l-5.7 0 0 -3.2 c0 -2.7 3.7 -8.1 21.6 -31.3 11.8 -15.4 21.7 -28.2 21.9 -28.5 0.2 -0.3 -5.7 -15 -13.1 -32.5 -7.9 -18.9 -13.4 -33.3 -13.4 -35.2 0 -3 0.3 -3.3 2.9 -3.3 1.6 0 8.4 2 15.2 4.4 6.8 2.5 19.6 7 28.4 10.1 8.8 3.1 18.3 6.5 21.2 7.5 l5.2 1.9 27.3 -23.4 c23.9 -20.6 27.7 -23.5 30.7 -23.5 l3.3 0 -0.6 12.8 c-0.3 7 -0.8 24.2 -1.1 38.2 l-0.6 25.5 31 18.5 31 18.5 0.1 3.6 c0 3.3 -0.3 3.7 -3.7 4.7 -23.2 6.6 -59.3 17.4 -61.3 18.3 l-2.5 1.2 6 5.6 c3.3 3.1 10.5 9.7 16 14.6 5.5 5 10.5 9.5 11.1 10 0.6 0.6 4.8 4.4 9.4 8.5 4.6 4.1 10.6 9.6 13.4 12.1 2.8 2.5 10.1 9 16.1 14.4 6.1 5.3 11.5 10.2 12 10.9 0.6 0.6 2.6 2.4 4.5 4 1.9 1.5 5.3 4.5 7.5 6.5 2.2 2 11 9.9 19.5 17.5 8.5 7.7 16.9 15.3 18.6 17 1.7 1.7 5.9 5.6 9.4 8.6 9.7 8.3 37.2 33 39.8 35.6 1.2 1.3 2.2 3.2 2.2 4.4 0 1.9 -0.6 2 -10.8 2 l-10.7 0 -8.5 -8.5z m-184 -138.1 c4.1 -3.5 6.5 -8.4 9.1 -19 3.8 -15.4 4 -15.6 21.3 -21.3 13.4 -4.5 18.6 -7.5 20.8 -12.2 3 -6.1 -0.5 -10.8 -15.4 -20.5 -5.4 -3.5 -10.5 -7.6 -11.5 -9.1 -1.4 -2.1 -1.9 -5.8 -2.3 -17.7 -0.5 -11.3 -1 -15.9 -2.3 -18.3 -1.8 -3.3 -5.7 -6.8 -8.7 -7.8 -2.6 -0.8 -9.2 2.7 -17.5 9.3 -13.4 10.8 -16.1 11.2 -35.6 5 -12.7 -4 -13.3 -4.1 -17.3 -2.7 -4.5 1.6 -8.6 6.6 -8.6 10.6 0 1.3 1.8 7.2 4 13 3.3 8.8 4 11.9 4 17.9 0 6.6 -0.3 7.6 -3.4 12 -15.9 22.6 -16.2 23.6 -10.2 30.3 3.6 4 6.3 4.5 23.3 4.6 l16.2 0 3.1 3 c1.8 1.7 5.4 6.2 8 10 4.8 7 9.8 12.3 13.5 14.3 3.2 1.8 6.1 1.4 9.5 -1.4z"/>
 </g>
 <g fill="#2c2800">
  <path d="M381 361 l-6.5 -6 3.5 0 c4 0 6 1.4 6 4.2 0 1.1 0.7 1.8 2 1.8 1.6 0 2 0.7 2 3 0 1.7 -0.1 3 -0.3 3 -0.1 0 -3.1 -2.7 -6.7 -6z"/>
  <path d="M368.5 349.6 l-4 -3.5 3.8 -0.1 c4 0 5.1 1.2 4.5 5 -0.3 2 -0.5 2 -4.3 -1.4z"/>
  <path d="M359 341.2 l-4.5 -4.1 3.6 -0.1 c4.3 0 6.2 1.8 5.7 5.6 l-0.3 2.6 -4.5 -4z"/>
  <path d="M368 337.5 c0 -3.3 0.2 -3.5 3.5 -3.5 2.4 0 3.5 0.5 3.5 1.5 0 0.8 -0.7 1.5 -1.5 1.5 -2 0 -1.9 1 0.3 2.6 1.5 1.2 1.3 1.3 -2 1.4 -3.7 0 -3.8 -0.1 -3.8 -3.5z"/>
  <path d="M43.2 334.9 c-5.1 -2.5 -8.9 -8.4 -9.8 -15.2 -0.6 -4.3 -0.5 -4.7 1.5 -4.7 1.6 0 2.1 0.6 2.1 2.5 0 2.9 2.8 9.2 5.1 11.6 1 0.9 3.3 2.3 5.3 3 2.3 0.8 3.6 1.9 3.6 3.1 0 2.4 -2.5 2.3 -7.8 -0.3z"/>
  <path d="M326.1 333.6 c-2.4 -2.5 -3.2 -4.1 -2.9 -6.1 l0.3 -2.8 5.8 5.2 c3.1 2.9 5.7 5.7 5.7 6.2 0 0.5 -1.3 0.9 -2.8 0.9 -1.9 0 -3.9 -1.1 -6.1 -3.4z"/>
  <path d="M351.8 334.6 c-2.4 -1.8 -12.9 -11.1 -20.6 -18.3 l-6.7 -6.3 3.6 0 c4.1 0 5.9 1.5 5.9 4.7 0 1.8 0.6 2.3 2.4 2.3 2.5 0 11.6 7.7 11.6 9.9 0 0.6 0.8 1.1 1.9 1.1 2.6 0 4.3 2.4 3.9 5.4 -0.3 2.1 -0.5 2.3 -2 1.2z"/>
  <path d="M396 334.2 c0 -2 3.8 -4.2 7 -4.2 1.3 0 2 -0.7 2 -1.9 0 -1 0.7 -3.5 1.5 -5.5 1.4 -3.3 1.5 -17.8 1.3 -123.6 -0.3 -119.1 -0.1 -125.7 2.8 -117.8 1.3 3.6 1.7 234.2 0.4 240.5 -1.2 5.8 -4.6 10.5 -9.1 12.8 -3.8 2 -5.9 1.9 -5.9 -0.3z"/>
  <path d="M314.1 300.9 c-9.4 -8.4 -9.4 -8.4 -6.2 -8.7 4.1 -0.4 6.1 1.2 6.1 4.9 0 2.6 0.3 2.9 3.3 2.9 4.2 0 7 2.8 6.5 6.5 -0.3 2.6 -0.6 2.5 -9.7 -5.6z"/>
  <path d="M286.7 295.2 c-4.9 -4.9 -5.8 -6.3 -5.5 -8.8 0.3 -2.9 0.4 -2.8 9.3 5.8 l9 8.7 -3.5 0 c-2.9 0 -4.5 -0.9 -9.3 -5.7z"/>
  <path d="M299 287.1 l-4.5 -4 3.3 -0.1 c4.1 0 6.4 2.1 6 5.5 l-0.3 2.6 -4.5 -4z"/>
  <path d="M289.5 278.8 c-2.2 -1.8 -4.4 -3.8 -5 -4.4 -0.5 -0.7 -5.9 -5.6 -12 -10.9 -6 -5.4 -13.3 -11.9 -16.1 -14.4 -2.8 -2.5 -8.8 -8 -13.4 -12.1 -4.6 -4.1 -10.4 -9.4 -12.9 -11.7 l-4.6 -4.2 3.6 -0.1 c3.9 0 7.9 3.5 7.9 6.9 0 1.5 0.8 2.1 3.3 2.3 2.2 0.2 3.5 1 4.2 2.6 0.5 1.2 1.4 2.2 1.9 2.2 0.5 0 1.6 0.8 2.5 1.8 0.9 0.9 2.5 2.2 3.6 2.8 1.1 0.6 2.1 2.1 2.3 3.3 0.2 1.3 1.1 2.1 2.3 2.1 1 0 1.9 0.5 1.9 1 0 0.6 0.6 1 1.3 1 2.2 0 5.7 4.5 5.7 7.3 0 2.4 0.4 2.7 3.3 2.7 4 0 5.7 1.5 5.7 5.2 0 2.5 0.3 2.8 3.3 2.8 3.6 0 6.7 2.5 6.7 5.3 0 1 0.8 1.7 2 1.7 1.1 0 2 0.7 2 1.5 0 0.8 0.9 1.5 2 1.5 2.3 0 3.3 1.8 2.8 5 -0.3 1.9 -0.5 1.9 -4.3 -1.2z"/>
  <path d="M176 264.5 c0 -2 -0.5 -2.5 -2.5 -2.5 -1.6 0 -2.5 -0.6 -2.5 -1.5 0 -0.8 -0.4 -1.5 -1 -1.5 -0.5 0 -1 -1.6 -1 -3.5 0 -3.1 -0.3 -3.5 -2.5 -3.5 -1.6 0 -2.5 -0.6 -2.5 -1.5 0 -0.8 -0.4 -1.5 -1 -1.5 -0.5 0 -1 -0.7 -1 -1.5 0 -0.8 -0.4 -1.5 -1 -1.5 -0.5 0 -1 -0.7 -1 -1.5 0 -0.8 -0.4 -1.5 -1 -1.5 -0.5 0 -1 -0.7 -1 -1.5 0 -0.8 -0.4 -1.5 -1 -1.5 -0.5 0 -1 -0.7 -1 -1.5 0 -0.8 -0.4 -1.5 -1 -1.5 -0.5 0 -1 -1.6 -1 -3.6 0 -2 0.4 -3.3 1 -2.9 0.5 0.3 6 8 12.1 17.1 6.2 9 11.6 16.1 11.9 15.7 0.4 -0.4 3.7 -13.6 7.4 -29.3 3.7 -15.7 7.1 -28.6 7.6 -28.8 0.6 -0.2 0.7 -1.4 0.4 -2.7 -1.1 -4.4 1.2 -3.2 10.1 5.6 l9 8.9 -3.5 0 c-3 0 -4.4 -0.9 -8.5 -5 l-4.9 -5 -4.7 20.3 c-2.6 11.1 -5.8 24.6 -7 30 l-2.2 9.7 -3.4 0 c-2.9 0 -3.3 -0.3 -3.3 -2.5z"/>
  <path d="M243.1 252.5 c-4.1 -4.3 -5.2 -6.1 -4.9 -8.2 0.3 -2.6 0.6 -2.4 8.8 5.5 l8.5 8.1 -3.6 0.1 c-3 0 -4.3 -0.8 -8.8 -5.5z"/>
  <path d="M147 225.5 c0 -0.8 -0.4 -1.5 -1 -1.5 -0.5 0 -1 -1.6 -1 -3.5 0 -3.1 -0.3 -3.5 -2.5 -3.5 -1.6 0 -2.5 -0.6 -2.5 -1.5 0 -0.8 -0.4 -1.5 -1 -1.5 -0.5 0 -1 -0.7 -1 -1.5 0 -0.8 -0.4 -1.5 -1 -1.5 -0.5 0 -1 -0.5 -1 -1.1 0 -1.4 -2.5 -3.9 -3.9 -3.9 -2.1 0 -1.1 -2.8 1.1 -3.4 2.8 -0.7 2.6 -0.8 12.2 13.2 l7.7 11.2 -3.1 0 c-2 0 -3 -0.5 -3 -1.5z"/>
  <path d="M163.5 225.1 c-4.7 -2.2 -9.7 -7.3 -15.3 -15.6 -2.2 -3.3 -5.4 -7.3 -7.2 -9 l-3.2 -3 -14.1 0.3 c-16.8 0.4 -21.5 -0.6 -25.7 -5.5 -3.8 -4.3 -4.6 -7.6 -3.1 -13.2 1.1 -4.1 3.3 -7.7 13.7 -22.5 4.6 -6.5 4.5 -10.4 -0.6 -23.9 -4.7 -12.4 -5.2 -19.2 -2 -24.5 4.5 -7.3 12.6 -7.9 30.7 -2.1 15.4 4.9 16.3 4.7 27.3 -4.1 13.6 -11 21.2 -13.4 28 -8.7 6.3 4.2 7.4 7.4 8 24.3 0.4 12 0.9 15.6 2.3 17.7 1 1.5 6.1 5.6 11.5 9.1 10.5 6.8 14.5 10.5 16.1 14.9 2.5 6.5 0.1 13.4 -6 17.4 -2.1 1.4 -9 4.2 -15.5 6.4 -17.3 5.7 -17.5 5.9 -21.3 21.3 -3.3 13.4 -6.8 19 -13.4 21.5 -3.9 1.5 -5.6 1.4 -10.2 -0.8z m8.5 -8.1 c3.1 -1.7 5.8 -7.3 8.6 -17.6 4.4 -16.6 4.9 -17 23.1 -22.9 12.1 -3.9 18.3 -8.1 18.3 -12.3 0 -3.4 -4.9 -8.2 -15.2 -14.8 -12.7 -8.2 -13 -8.9 -13.8 -27.5 -0.6 -14.9 -0.7 -15.3 -5.4 -21.3 -1.4 -1.7 -2 -1.8 -5.3 -0.8 -2.1 0.6 -7.7 4.3 -12.5 8.1 -13.4 10.6 -17 11.2 -34.9 5.6 -13.1 -4.1 -14.5 -4.3 -18.6 -2.6 -4.9 2 -5.6 6.4 -2.6 14.8 8.8 24.1 8.6 26.1 -2.6 41.6 -6.5 8.9 -9.1 14 -8.4 16.6 0.2 0.9 2 2.8 4 4.1 3.5 2.4 4.3 2.5 19.3 2.5 18.3 0 18.7 0.1 25.8 10.3 5.9 8.5 14.4 17.2 16.6 17.2 1 0 2.6 -0.4 3.6 -1z"/>
  <path d="M215.1 211.9 l-9.5 -8.4 3.3 -0.3 c4.1 -0.4 7.1 2.1 7.1 6 0 2.5 0.3 2.8 3.4 2.8 4 0 5.9 1.9 5.4 5.6 -0.3 2.5 -0.6 2.3 -9.7 -5.7z"/>
  <path d="M59 208.5 c0 -1.9 0.5 -3.5 1 -3.5 0.6 0 1 -0.7 1 -1.5 0 -0.8 0.7 -1.5 1.5 -1.5 0.8 0 1.5 -0.9 1.5 -2 0 -1.1 0.7 -2 1.5 -2 0.8 0 1.5 -0.9 1.5 -2 0 -1.3 0.7 -2 2 -2 1.5 0 2 -0.7 2 -2.5 0 -1.6 0.6 -2.5 1.5 -2.5 0.8 0 1.5 -0.9 1.5 -2 0 -1.1 0.7 -2 1.5 -2 0.8 0 1.5 -0.9 1.5 -2 0 -1.3 0.7 -2 2 -2 1.5 0 2 -0.7 2 -2.5 0 -1.6 0.6 -2.5 1.5 -2.5 0.8 0 1.5 -0.9 1.5 -2 0 -1.1 0.7 -2 1.5 -2 0.9 0 1.5 -0.9 1.5 -2.1 0 -1.2 0.8 -2.3 2 -2.6 1.1 -0.3 2 -1.4 2 -2.4 0 -1.1 0.7 -1.9 1.5 -1.9 0.8 0 1.5 -0.9 1.5 -2 0 -1.1 0.7 -2 1.5 -2 0.8 0 1.5 -0.9 1.5 -2 0 -1.3 0.7 -2 2 -2 1.5 0 2 -0.7 2 -2.5 0 -1.6 0.6 -2.5 1.5 -2.5 0.9 0 1.5 -0.9 1.5 -2.5 0 -1.4 -0.4 -2.5 -1 -2.5 -0.5 0 -1 -0.9 -1 -2.1 0 -1.1 -0.7 -2.7 -1.5 -3.5 -0.8 -0.9 -1.5 -2.6 -1.5 -4 0 -1.3 -0.4 -2.4 -1 -2.4 -0.5 0 -1 -1.6 -1 -3.5 0 -2.4 -0.5 -3.5 -1.5 -3.5 -0.9 0 -1.5 -0.9 -1.5 -2.1 0 -1.1 -0.7 -2.7 -1.5 -3.5 -0.8 -0.9 -1.5 -2.6 -1.5 -4 0 -1.3 -0.4 -2.4 -0.9 -2.4 -0.9 0 -4.1 -7.7 -4.1 -9.9 0 -0.7 -0.7 -1.9 -1.5 -2.7 -0.8 -0.9 -1.5 -2.6 -1.5 -4 0 -1.3 -0.4 -2.4 -1 -2.4 -0.5 0 -1 -0.9 -1 -2.1 0 -1.1 -0.7 -2.7 -1.5 -3.5 -1 -1 -1.5 -3.5 -1.5 -7.1 l0 -5.6 4.7 0.6 c2.6 0.3 4.9 1 5.1 1.6 0.2 0.6 1.1 1.1 2 1.1 2.8 0 17.2 5.1 17.2 6.1 0 0.5 1 0.9 2.3 0.9 1.2 0 7.7 1.9 14.4 4.2 10.7 3.7 12.3 4.6 12.3 6.5 l0 2.2 -8.2 -2.9 c-7.9 -2.7 -34.3 -12 -43.7 -15.4 -3.1 -1.2 -4.2 -1.2 -3.8 -0.3 0.3 0.6 6.6 15.8 14.1 33.5 7.5 17.8 13.6 32.8 13.6 33.3 0 0.5 -10.1 14.1 -22.5 30.2 -20.8 26.9 -22.3 29.2 -20 29.5 1.7 0.2 2.5 1 2.5 2.3 0 1.6 -0.7 1.9 -4.5 1.9 -4.5 0 -4.5 0 -4.5 -3.5z"/>
  <path d="M71 209.6 c0 -1.4 2.9 -2.6 6.8 -2.6 1.5 0 2.2 0.6 2.2 2 0 1.7 -0.7 2 -4.5 2 -3.2 0 -4.5 -0.4 -4.5 -1.4z"/>
  <path d="M83 208.6 c0 -1.4 2.9 -2.6 6.8 -2.6 1.5 0 2.2 0.6 2.2 2 0 1.7 -0.7 2 -4.5 2 -3.2 0 -4.5 -0.4 -4.5 -1.4z"/>
  <path d="M96 207.6 c0 -1.4 2.9 -2.6 6.8 -2.6 1.5 0 2.2 0.6 2.2 2 0 1.7 -0.7 2 -4.5 2 -3.2 0 -4.5 -0.4 -4.5 -1.4z"/>
  <path d="M108 206.6 c0 -0.7 1 -1.6 2.3 -2 4.1 -1.1 5.7 -0.7 5.7 1.4 0 1.7 -0.7 2 -4 2 -2.7 0 -4 -0.4 -4 -1.4z"/>
  <path d="M118 205.5 c0 -0.8 0.3 -1.5 0.8 -1.6 0.4 0 2.6 -0.2 5 -0.5 3.8 -0.5 4.2 -0.4 4.2 1.5 0 1.9 -0.6 2.1 -5 2.1 -3.8 0 -5 -0.4 -5 -1.5z"/>
  <path d="M200.3 198.2 c-3.6 -3 -3.3 -4.1 1.6 -6.5 3.5 -1.7 56.7 -17.7 58.9 -17.7 0.6 0 1.2 0.8 1.2 1.8 0 1.8 -6.4 4.2 -11.4 4.2 -1.4 0 -2.6 0.5 -2.8 1.1 -0.2 0.6 -2.5 1.3 -5.1 1.6 -2.6 0.3 -4.7 1 -4.7 1.4 0 0.5 -1.5 0.9 -3.4 0.9 -1.9 0 -3.6 0.4 -3.8 0.9 -0.4 1.1 -23.7 8.1 -27.5 8.2 -1.7 0.1 -2.1 0.3 -1 0.6 1.1 0.3 1.7 1.4 1.7 3.4 0 1.6 -0.1 2.9 -0.2 2.9 -0.2 0 -1.7 -1.2 -3.5 -2.8z"/>
  <path d="M265 173.5 c0 -0.8 0.7 -1.5 1.5 -1.5 0.8 0 1.5 -0.3 1.5 -0.7 0 -0.5 -14 -9.1 -31 -19.3 -21.4 -12.8 -30.9 -19 -31 -20.2 0 -2.2 3.3 -2.4 5.2 -0.4 0.8 0.7 2.4 1.7 3.6 2 1.2 0.4 2.2 1.2 2.2 1.7 0 0.5 0.7 0.9 1.5 0.9 0.8 0 1.5 0.7 1.5 1.5 0 0.9 0.9 1.5 2.5 1.5 1.6 0 2.5 0.6 2.5 1.5 0 0.9 0.9 1.5 2.5 1.5 1.6 0 2.5 0.6 2.5 1.5 0 0.9 0.9 1.5 2.5 1.5 1.6 0 2.5 0.6 2.5 1.5 0 0.9 0.9 1.5 2.5 1.5 1.6 0 2.5 0.6 2.5 1.5 0 0.9 0.9 1.5 2.5 1.5 1.6 0 2.5 0.6 2.5 1.5 0 0.9 0.9 1.5 2.5 1.5 1.4 0 2.5 0.4 2.5 0.9 0 0.5 1.1 1.2 2.5 1.5 1.4 0.4 2.5 1.1 2.5 1.6 0 0.6 0.7 1 1.5 1 0.8 0 1.5 0.7 1.5 1.5 0 0.9 0.9 1.5 2.5 1.5 1.6 0 2.5 0.6 2.5 1.5 0 0.9 0.9 1.5 2.5 1.5 1.6 0 2.5 0.6 2.5 1.5 0 0.8 0.9 1.5 2 1.5 1.6 0 2 0.7 2 3.5 0 3.3 -0.2 3.5 -3.5 3.5 -2.4 0 -3.5 -0.5 -3.5 -1.5z"/>
  <path d="M33 120.5 c0 -3.8 0.3 -4.5 2 -4.5 1.7 0 2 0.7 2 4.5 0 3.8 -0.3 4.5 -2 4.5 -1.7 0 -2 -0.7 -2 -4.5z"/>
  <path d="M206 106.8 c0 -4.8 1 -7.8 2.6 -7.8 1 0 1.4 1.5 1.4 5.5 0 4.8 -0.2 5.5 -2 5.5 -1.6 0 -2 -0.7 -2 -3.2z"/>
  <path d="M143.6 102.7 c-6.5 -2.4 -8.5 -4.7 -4 -4.7 1.4 0 4.4 0.5 6.5 1.2 3.1 0.9 3.9 1.6 3.9 3.5 0 1.2 -0.1 2.3 -0.2 2.2 -0.2 0 -3 -1 -6.2 -2.2z"/>
  <path d="M151.2 101.9 c0.3 -3 0.7 -3.4 3.5 -3.7 2.6 -0.3 3.2 -0.8 3.5 -3 0.2 -2.2 0.9 -2.8 3.5 -3 2.6 -0.3 3.2 -0.8 3.5 -3 0.2 -2.2 0.9 -2.8 3.5 -3 2.6 -0.3 3.2 -0.8 3.5 -3 0.3 -2.3 0.8 -2.7 4.1 -3 3.4 -0.3 3.7 -0.6 3.7 -3.3 0 -2.5 0.4 -2.9 2.9 -2.9 2.5 0 3 -0.4 3.3 -2.7 0.3 -2.4 0.8 -2.8 4.1 -3.1 3.4 -0.3 3.7 -0.6 3.7 -3.3 0 -2.7 0.3 -2.9 3.5 -2.9 3.2 0 3.5 -0.3 3.5 -2.8 0 -3.5 3.1 -6.2 7 -6.2 2.7 0 3 0.3 3 3.4 0 1.9 -0.6 3.7 -1.2 3.9 -1 0.4 -1 0.6 0 0.6 0.8 0.1 1.2 2.4 1.2 8.1 0 7.5 -0.1 8 -2.2 8 -2.1 0 -2.1 -0.2 -1.4 -10.2 0.6 -9.6 0.5 -10.1 -1.1 -8.6 -1 0.8 -13 11.1 -26.8 22.9 -32.1 27.5 -28.7 25 -28.3 20.8z"/>
  <path d="M403.2 76.8 c-0.7 -0.7 -1.2 -2 -1.2 -3 0 -1.2 -0.8 -1.8 -2.4 -1.8 -5.4 0 -8.6 -1.2 -8.6 -3.2 0 -1.8 0.4 -1.9 3.8 -1.3 6.4 1.1 14.2 6.6 14.2 9.9 0 1.1 -4.6 0.6 -5.8 -0.6z"/>
  <path d="M229.8 69.3 c-1.1 -0.3 -1.8 -1.4 -1.8 -3 0 -1.6 0.4 -2.3 1.3 -1.9 0.6 0.2 2.9 1 5 1.7 6.9 2.3 2.9 5.1 -4.5 3.2z"/>
  <path d="M220 61.8 c0 -0.2 -0.7 -4.1 -1.5 -8.8 -0.9 -4.7 -1.8 -10.5 -2.1 -13 l-0.6 -4.5 2.1 2.1 c1.6 1.5 2.6 4.4 3.6 10.9 0.8 4.8 2.1 9.8 3 11.1 1.5 2.3 1.5 2.4 -1.5 2.4 -1.6 0 -3 -0.1 -3 -0.2z"/>
  <path d="M33 49.3 c0 -4 2.3 -9.6 5.3 -13 4.8 -5.4 12.7 -8.3 12.7 -4.5 0 1.9 -4.8 4.2 -8.8 4.2 -1.8 0 -2.2 0.6 -2.2 3 0 1.7 -0.4 3 -0.9 3 -0.6 0 -1.3 2 -1.7 4.5 -0.5 3.5 -1 4.5 -2.5 4.5 -1.1 0 -1.9 -0.7 -1.9 -1.7z"/>
  <path d="M203 32 c0 -2.1 1 -2.4 4.8 -1.4 3.6 1 2.7 3.4 -1.3 3.4 -2.8 0 -3.5 -0.4 -3.5 -2z"/>
 </g>
 <g fill="#595000">
  <path d="M350.3 333.2 c-20.5 -18.5 -63.1 -56.9 -94.7 -85.2 -31.6 -28.3 -57.5 -52.2 -57.5 -53.2 -0.1 -0.9 1.1 -2 2.8 -2.6 2.6 -0.9 3 -0.8 3.3 0.8 0.2 1 42.2 39.4 93.3 85.4 70 62.9 93.1 84.2 93.3 86.1 0.3 1.9 -0.1 2.5 -1.5 2.4 -1 0 -18.6 -15.2 -39 -33.7z"/>
  <path d="M378 346.9 l0 -3 3 2.1 c4.4 3.1 4.5 4 0.6 4 -3.3 0 -3.6 -0.2 -3.6 -3.1z"/>
  <path d="M370 339.5 c0 -3.4 0.1 -3.5 3.8 -3.3 l3.7 0.1 -3.4 0.4 -3.4 0.4 3.4 2.9 3.4 2.9 -3.7 0.1 c-3.7 0 -3.8 -0.1 -3.8 -3.5z"/>
  <path d="M46.8 336.3 c-3.3 -0.8 -2 -3.3 1.7 -3.3 2.8 0 3.5 0.4 3.5 2 0 2 -1.4 2.3 -5.2 1.3z"/>
  <path d="M392 335 c0 -1.6 0.7 -2 3.5 -2 4 0 4.9 2.4 1.3 3.4 -3.8 1 -4.8 0.7 -4.8 -1.4z"/>
  <path d="M401 331.5 c0 -1.6 0.6 -2.5 1.5 -2.5 0.8 0 1.5 -0.7 1.5 -1.5 0 -0.8 0.7 -1.5 1.5 -1.5 1 0 1.5 -1.1 1.5 -3.5 0 -2.8 0.4 -3.5 2 -3.5 2.5 0 2.5 2.2 0.1 7.6 -1.7 3.7 -5.3 7.4 -7.3 7.4 -0.5 0 -0.8 -1.1 -0.8 -2.5z"/>
  <path d="M34.8 324.8 c-1.7 -3 -2.4 -271.4 -0.8 -279.2 0.6 -2.8 2.2 -6.5 3.7 -8.4 4.5 -6 17.3 -9.9 17.3 -5.3 0 1.5 -1 2 -5 2.5 -2.8 0.4 -5 1.1 -5 1.6 0 0.6 -0.9 1 -2 1 -1.3 0 -2 0.7 -2 2 0 1.1 -0.4 2 -0.9 2 -3 0 -3.2 9.2 -2.9 147.3 0.2 76.3 0 138.7 -0.4 138.7 -0.4 0 -1.3 -1 -2 -2.2z"/>
  <path d="M294.1 302.5 c-2.2 -2.5 -3.1 -4.4 -2.9 -6.2 0.3 -2.5 0.5 -2.4 6.8 3.5 l6.5 6.1 -3.6 0.1 c-2.9 0 -4.2 -0.7 -6.8 -3.5z"/>
  <path d="M175 266.5 c0 -0.8 -0.4 -1.5 -1 -1.5 -0.5 0 -1 -1.7 -1 -3.7 l0.1 -3.8 2.8 3.3 c1.5 1.7 3 3.2 3.3 3.2 0.3 0 0.9 -1.6 1.2 -3.5 0.4 -2.1 1.3 -3.5 2.1 -3.5 1.6 0 1.9 2.7 0.9 7.9 -0.6 2.8 -1 3.1 -4.5 3.1 -2.8 0 -3.9 -0.4 -3.9 -1.5z"/>
  <path d="M252.6 262.1 c-2.9 -3 -3.7 -4.5 -3.4 -6.7 0.3 -2.9 0.3 -2.9 7.3 3.8 l7 6.7 -3.5 0.1 c-2.9 0 -4.4 -0.8 -7.4 -3.9z"/>
  <path d="M166 251.4 c0 -3.9 0.9 -3.8 4 0.6 l2.1 3 -3 0 c-2.9 0 -3.1 -0.3 -3.1 -3.6z"/>
  <path d="M182 253.8 c0 -3 1.3 -5.8 2.6 -5.8 0.9 0 1.4 1.2 1.4 3.5 0 2.8 -0.4 3.5 -2 3.5 -1.1 0 -2 -0.6 -2 -1.2z"/>
  <path d="M157 240.5 c0 -0.8 -0.4 -1.5 -1 -1.5 -0.5 0 -1 -0.7 -1 -1.5 0 -0.8 -0.4 -1.5 -1 -1.5 -0.5 0 -1 -0.7 -1 -1.5 0 -0.8 -0.4 -1.5 -1 -1.5 -0.5 0 -1 -0.7 -1 -1.5 0 -0.8 -0.4 -1.5 -1 -1.5 -0.5 0 -1 -1.6 -1 -3.6 0 -2.1 0.4 -3.3 1 -2.9 0.6 0.4 3.7 4.7 7 9.6 l6.1 8.9 -3.1 0 c-2 0 -3 -0.5 -3 -1.5z"/>
  <path d="M187 232.8 c0 -3 1.3 -5.8 2.6 -5.8 0.9 0 1.4 1.2 1.4 3.5 0 2.8 -0.4 3.5 -2 3.5 -1.1 0 -2 -0.6 -2 -1.2z"/>
  <path d="M210.1 220.6 c-2.4 -2.5 -3.2 -4.1 -2.9 -6.2 l0.3 -2.8 6.5 6.1 6.5 6.2 -3.6 0.1 c-2.7 0 -4.2 -0.8 -6.8 -3.4z"/>
  <path d="M168.5 222 c-6.1 -1.3 -10.6 -5.5 -19.7 -18.3 -7.1 -10.1 -7.5 -10.2 -25.8 -10.2 -15 0 -15.8 -0.1 -19.3 -2.5 -7.3 -5 -6.2 -11.9 4.3 -26.6 9.7 -13.6 10 -14.9 6 -26 -5.9 -16.4 -6.5 -19.4 -5.1 -24.7 1.2 -4.1 1.8 -4.8 5.7 -6.3 5.3 -2 8.2 -1.6 23.8 3.2 14.4 4.5 15.8 4.2 27.8 -5.3 4.6 -3.6 9.7 -7.2 11.5 -7.9 4.6 -2 11.3 -1.8 13 0.4 4.6 5.7 4.7 6.3 5.3 21.1 0.8 18.6 1.1 19.2 13.8 27.5 11.1 7.2 13.8 9.9 15.7 15.2 1.1 3.3 1 4.1 -0.7 7.1 -2.9 4.8 -6.4 6.9 -18.3 10.8 -18.1 6 -18.3 6.2 -22.7 22.3 -2.7 10 -6.6 18.2 -8.7 18.2 -0.5 0 -1.6 0.6 -2.3 1.3 -0.8 0.8 -2.4 1.1 -4.3 0.7z m8.5 -21.4 c1.1 -3.9 2.5 -8.9 3.1 -11.1 1.9 -6.7 7 -10.8 18.4 -14.4 11.3 -3.7 16.2 -6 18.8 -8.9 1.8 -2 1.8 -2.1 -1.8 -6.1 -2 -2.2 -6.7 -5.9 -10.3 -8.2 -13.5 -8.4 -14.3 -9.9 -15.2 -28.4 -0.5 -11.2 -1 -14.7 -2.5 -17.3 -1.1 -1.7 -2.5 -3.2 -3.3 -3.2 -2.3 0 -7.5 3.1 -14.3 8.6 -12 9.7 -17.9 10.5 -35.9 4.9 -6.1 -1.9 -12.9 -3.5 -15.1 -3.5 -3.9 0 -3.9 0 -3.9 4 0 2.4 1.6 8 3.7 13.3 3.1 7.8 3.7 10.4 3.7 17.3 0.1 8.9 0.2 8.6 -10.6 24.1 -2.6 3.7 -5 8.2 -5.4 9.9 -0.6 2.9 -0.4 3.1 4.4 4.6 3.8 1.3 7.5 1.5 16.9 1.1 16.3 -0.8 18.3 0.2 27.8 13.3 3.9 5.3 8.5 10.7 10.4 11.9 l3.4 2.4 2.9 -3.6 c1.5 -2 3.7 -6.8 4.8 -10.7z"/>
  <path d="M142 216.4 c0 -3.9 0.9 -3.8 4 0.6 l2.1 3 -3 0 c-2.9 0 -3.1 -0.3 -3.1 -3.6z"/>
  <path d="M191 216.3 c0 -2.4 3.5 -16.3 4 -16.3 2.4 0 2.7 2.9 1.2 9.8 -1.2 5.7 -1.9 7.2 -3.4 7.2 -1 0 -1.8 -0.3 -1.8 -0.7z"/>
  <path d="M61.3 210.5 c-1.9 -2 -1.7 -7.5 0.2 -7.5 0.8 0 1.5 -0.9 1.5 -2 0 -1.1 0.7 -2 1.5 -2 0.8 0 1.5 -0.9 1.5 -2 0 -1.3 0.7 -2 2 -2 1.5 0 2 -0.7 2 -2.5 0 -1.6 0.6 -2.5 1.5 -2.5 0.8 0 1.5 -0.9 1.5 -2 0 -1.1 0.7 -2 1.5 -2 0.8 0 1.5 -0.9 1.5 -2 0 -1.3 0.7 -2 2 -2 1.5 0 2 -0.7 2 -2.5 0 -1.6 0.6 -2.5 1.5 -2.5 0.8 0 1.5 -0.9 1.5 -2 0 -1.1 0.7 -2 1.5 -2 0.8 0 1.5 -0.9 1.5 -2 0 -1.3 0.7 -2 2 -2 1.5 0 2 -0.7 2 -2.5 0 -1.6 0.6 -2.5 1.5 -2.5 0.8 0 1.5 -0.9 1.5 -2 0 -1.1 0.7 -2 1.5 -2 0.8 0 1.5 -0.9 1.5 -2 0 -1.1 0.7 -2 1.5 -2 0.9 0 1.5 -0.9 1.5 -2.1 0 -1.2 0.8 -2.3 2 -2.6 2.5 -0.7 2.8 -6.6 0.5 -8.9 -0.8 -0.9 -1.5 -2.6 -1.5 -4 0 -1.3 -0.4 -2.4 -1 -2.4 -0.5 0 -1 -0.9 -1 -2.1 0 -1.1 -0.7 -2.7 -1.5 -3.5 -0.8 -0.9 -1.5 -2.4 -1.5 -3.5 0 -1.1 -0.7 -2.7 -1.5 -3.5 -0.8 -0.9 -1.5 -2.6 -1.5 -4 0 -1.3 -0.4 -2.4 -1 -2.4 -0.5 0 -1 -1.6 -1 -3.5 0 -2.4 -0.5 -3.5 -1.5 -3.5 -0.9 0 -1.5 -0.9 -1.5 -2.1 0 -1.1 -0.7 -2.7 -1.5 -3.5 -0.8 -0.9 -1.5 -2.6 -1.5 -4 0 -1.3 -0.4 -2.4 -1 -2.4 -0.5 0 -1 -0.9 -1 -2.1 0 -1.1 -0.7 -2.7 -1.5 -3.5 -0.8 -0.9 -1.5 -2.6 -1.5 -4 0 -1.3 -0.4 -2.4 -1 -2.4 -1.5 0 -1.2 -6 0.4 -7.6 1.5 -1.4 7.6 -2 7.6 -0.6 0 0.4 2.4 1.3 5.3 2 2.8 0.7 5.4 1.7 5.5 2.2 0.2 0.6 1.7 1 3.3 1 1.6 0 2.9 0.3 2.9 0.8 0 0.4 2.3 1.3 5.2 2 6 1.4 6.1 1.4 5.6 4 -0.3 1.8 -1.4 1.6 -16.7 -3.9 -9.1 -3.2 -16.7 -5.7 -16.9 -5.5 -0.2 0.2 6 15.5 13.8 34 8.2 19.5 13.8 34.1 13.4 34.9 -0.4 0.6 -9.6 12.7 -20.4 26.7 -10.8 14 -20.9 27.2 -22.4 29.3 l-2.9 3.8 4.2 -0.7 c3.7 -0.6 4.1 -0.5 4.1 1.5 0 1.8 -0.6 2.1 -3.7 2.1 -2.1 -0.1 -4.4 -0.7 -5 -1.5z"/>
  <path d="M74 209.6 c0 -0.7 1 -1.6 2.3 -2 4.1 -1.1 5.7 -0.7 5.7 1.4 0 1.7 -0.7 2 -4 2 -2.7 0 -4 -0.4 -4 -1.4z"/>
  <path d="M86 208.6 c0 -0.7 1 -1.6 2.3 -2 4.1 -1.1 5.7 -0.7 5.7 1.4 0 1.7 -0.7 2 -4 2 -2.7 0 -4 -0.4 -4 -1.4z"/>
  <path d="M135 208.5 c0 -0.8 -0.4 -1.5 -1 -1.5 -0.5 0 -1 -0.9 -1 -2 0 -3.2 3.3 -2.4 5.8 1.5 l2.2 3.5 -3 0 c-2 0 -3 -0.5 -3 -1.5z"/>
  <path d="M97 207.5 c0 -0.8 0.3 -1.5 0.8 -1.6 0.4 0 2.6 -0.2 5 -0.5 3.8 -0.5 4.2 -0.4 4.2 1.5 0 1.9 -0.6 2.1 -5 2.1 -3.8 0 -5 -0.4 -5 -1.5z"/>
  <path d="M110 206.6 c0 -1.4 2.9 -2.6 6.8 -2.6 1.5 0 2.2 0.6 2.2 2 0 1.7 -0.7 2 -4.5 2 -3.2 0 -4.5 -0.4 -4.5 -1.4z"/>
  <path d="M122 205.6 c0 -1.4 2.9 -2.6 6.8 -2.6 1.5 0 2.2 0.6 2.2 2 0 1.7 -0.7 2 -4.5 2 -3.2 0 -4.5 -0.4 -4.5 -1.4z"/>
  <path d="M208 190.7 c0 -0.8 2.5 -2.1 6 -3 7.6 -2.1 8 -2.1 8 0.3 0 1.6 -0.7 2 -3.5 2 -1.9 0 -3.5 0.5 -3.5 1 0 0.6 -1.6 1 -3.5 1 -2.3 0 -3.5 -0.5 -3.5 -1.3z"/>
  <path d="M225 185.7 c0 -0.9 6.2 -3.2 17.8 -6.6 9.7 -2.8 19.7 -5.7 22.1 -6.5 l4.5 -1.3 -8.2 -4.9 c-4.5 -2.7 -8.2 -5.2 -8.2 -5.6 0 -0.5 1.6 -0.8 3.5 -0.8 2.4 0 3.5 0.5 3.5 1.5 0 0.9 0.9 1.5 2.5 1.5 1.6 0 2.5 0.6 2.5 1.5 0 1 1 1.5 2.6 1.5 2.6 0 2.6 0.2 2.1 4.5 -0.2 2.6 -0.7 4.8 -1 5.1 -0.3 0.3 -2.5 0.8 -4.9 1.1 -2.4 0.3 -4.5 0.9 -4.8 1.3 -0.7 1.1 -11.4 4 -14.4 4 -1.4 0 -2.6 0.4 -2.6 0.8 0 1 -11 4.2 -14.5 4.2 -1.4 0 -2.5 -0.6 -2.5 -1.3z"/>
  <path d="M223.8 143.7 c-9.3 -5.6 -16.8 -10.5 -16.8 -10.9 0 -0.5 1.6 -0.8 3.5 -0.8 2.4 0 3.5 0.5 3.5 1.5 0 0.9 0.9 1.5 2.5 1.5 1.4 0 2.5 0.4 2.5 0.9 0 0.5 1.1 1.2 2.5 1.5 1.4 0.4 2.5 1.1 2.5 1.6 0 0.6 0.7 1 1.5 1 0.8 0 1.5 0.7 1.5 1.5 0 0.9 0.9 1.5 2.5 1.5 1.6 0 2.5 0.6 2.5 1.5 0 0.9 0.9 1.5 2.5 1.5 1.6 0 2.5 0.6 2.5 1.5 0 0.9 0.9 1.5 2.5 1.5 2 0 2.5 0.5 2.5 2.5 0 1.4 -0.3 2.5 -0.7 2.5 -0.5 0 -8.3 -4.6 -17.5 -10.3z"/>
  <path d="M206.3 108.8 c0.4 -4 0.6 -7.4 0.7 -7.5 0 -0.2 0.7 -0.3 1.5 -0.3 1.2 0 1.5 1.5 1.5 7.5 0 7 -0.1 7.5 -2.1 7.5 -2 0 -2.1 -0.4 -1.6 -7.2z"/>
  <path d="M147.8 103.9 c-2.8 -1.6 -2.1 -2.9 1.7 -2.9 2.8 0 3.5 -0.4 3.5 -2 0 -1.6 0.7 -2 3.5 -2 3.2 0 3.5 -0.2 3.5 -3 0 -2.8 0.3 -3 3.5 -3 3.2 0 3.5 -0.2 3.5 -3 0 -2.8 0.3 -3 3.5 -3 3.2 0 3.5 -0.3 3.5 -2.8 0 -3.4 1.6 -5.2 4.7 -5.2 1.5 0 2.3 -0.6 2.3 -1.8 0 -2.5 1.9 -4.2 4.7 -4.2 1.5 0 2.3 -0.6 2.3 -1.8 0 -2.5 1.9 -4.2 4.7 -4.2 1.5 0 2.3 -0.6 2.3 -1.8 0 -2.6 2 -4.2 5.2 -4.2 2.3 0 2.8 -0.4 2.8 -2.5 0 -2.2 0.4 -2.5 3.5 -2.5 3.3 0 3.5 0.2 3.5 3.5 0 1.9 -0.4 3.5 -1 3.5 -0.5 0 -1 -1.1 -1 -2.5 l0 -2.6 -2.7 2.6 c-7.3 6.9 -53.5 46 -54.6 46.2 -0.7 0.2 -2 -0.2 -2.9 -0.8z"/>
  <path d="M138.6 100.7 c-6.5 -2.4 -8.5 -4.7 -4 -4.7 1.4 0 4.4 0.5 6.5 1.2 3.1 0.9 3.9 1.6 3.9 3.5 0 1.2 -0.1 2.3 -0.2 2.2 -0.2 0 -3 -1 -6.2 -2.2z"/>
  <path d="M124.6 95.7 c-6.5 -2.4 -8.5 -4.7 -4 -4.7 1.4 0 4.4 0.5 6.5 1.2 3.1 0.9 3.9 1.6 3.9 3.5 0 1.2 -0.1 2.3 -0.2 2.2 -0.2 0 -3 -1 -6.2 -2.2z"/>
  <path d="M406.6 83.8 c-0.4 -1.8 -0.9 -4.8 -1.3 -6.5 -0.4 -2.8 -0.9 -3.3 -3.3 -3.3 -1.6 0 -3.5 -0.7 -4.3 -1.5 -1.3 -1.2 -13 -1.5 -84.3 -1.7 -65.1 -0.2 -82.8 -0.6 -83.2 -1.5 -0.2 -0.7 -1.2 -1.3 -2.3 -1.3 -1 0 -1.9 -0.3 -1.9 -0.8 0 -0.4 -1 -1.2 -2.2 -1.7 -1.3 -0.6 -2.5 -1.9 -2.7 -3 -0.2 -1.1 -0.7 -2.3 -1.2 -2.6 -0.5 -0.3 -1.4 -4.3 -2 -9 -0.5 -4.6 -1.4 -8.5 -2 -8.7 -0.5 -0.2 -0.9 -1.5 -0.9 -2.8 0 -1.8 -0.5 -2.4 -2.2 -2.4 -1.3 -0.1 -3.4 -0.7 -4.8 -1.5 -1.4 -0.8 -3.7 -1.4 -5.2 -1.5 -2.1 0 -2.8 -0.5 -2.8 -2 0 -5.4 15.5 0.4 19.1 7.1 0.5 1.1 1.6 5.8 2.4 10.6 1.1 6.8 1.9 9.2 4.1 11.4 5.9 6.2 1.7 5.9 88.1 5.9 88.9 0 86.2 -0.2 92.7 7 2 2.2 3.6 4.6 3.6 5.4 0 0.7 0.3 2.8 0.6 4.5 0.6 2.6 0.4 3.1 -1.4 3.1 -1.4 0 -2.2 -0.9 -2.6 -3.2z"/>
  <path d="M207.1 76.8 c0.3 -7 0.8 -8.8 2.5 -8.8 1.1 0 1.4 1.7 1.4 7 0 6.4 -0.2 7 -2 7 -1.9 0 -2.1 -0.6 -1.9 -5.2z"/>
 </g>
 <g fill="#827500">
  <path d="M294 281 c-52.5 -47.2 -95.6 -86.2 -95.7 -86.7 -0.5 -1.4 6.4 -3.7 39.1 -13.3 24.6 -7.3 31.4 -9.6 30.4 -10.5 -0.7 -0.7 -14.9 -9.4 -31.5 -19.5 -16.7 -10.1 -30.3 -18.9 -30.3 -19.7 0 -0.7 1.1 -1.3 2.5 -1.3 1.6 0 2.5 0.6 2.5 1.5 0 0.9 0.9 1.5 2.5 1.5 1.6 0 2.5 0.6 2.5 1.5 0 0.9 0.9 1.5 2.5 1.5 1.6 0 2.5 0.6 2.5 1.5 0 0.9 0.9 1.5 2.5 1.5 1.4 0 2.5 0.5 2.5 1 0 0.6 0.7 1 1.5 1 0.8 0 1.5 0.7 1.5 1.5 0 0.9 0.9 1.5 2.5 1.5 1.6 0 2.5 0.6 2.5 1.5 0 0.9 0.9 1.5 2.5 1.5 1.6 0 2.5 0.6 2.5 1.5 0 0.9 0.9 1.5 2.5 1.5 1.4 0 2.5 0.5 2.5 1 0 0.6 0.6 1 1.4 1 0.8 0 2.1 0.6 2.8 1.4 0.8 0.7 2.4 1.7 3.6 2 1.2 0.4 2.2 1.2 2.2 1.7 0 0.5 0.7 0.9 1.5 0.9 0.8 0 1.5 0.7 1.5 1.5 0 0.9 0.9 1.5 2.5 1.5 1.6 0 2.5 0.6 2.5 1.5 0 0.9 0.9 1.5 2.5 1.5 1.6 0 2.5 0.6 2.5 1.5 0 0.9 0.9 1.5 2.5 1.5 2.1 0 2.5 0.5 2.5 3.1 0 3.9 -2 5.9 -5.8 5.9 -1.7 0 -3.2 0.5 -3.4 1.1 -0.2 0.6 -2.5 1.3 -5.1 1.6 -2.6 0.3 -4.7 1 -4.7 1.4 0 0.5 -1.5 0.9 -3.4 0.9 -1.9 0 -3.6 0.5 -3.8 1.1 -0.2 0.5 -2.4 1.3 -4.8 1.6 -2.5 0.3 -4.7 0.9 -5 1.3 -0.7 1.1 -11.4 4 -14.4 4 -1.4 0 -2.6 0.4 -2.6 0.8 0 0.5 -2.7 1.6 -6.1 2.6 -3.3 0.9 -5.9 2.1 -5.7 2.6 0.2 0.5 37 34 81.8 74.3 72.1 64.9 81.6 73 82 71 l0.5 -2.4 3.5 3 3.5 3 -2.9 0.1 -3 0 3 3.1 2.9 3 0.5 -2.6 0.5 -2.6 3.5 3 3.5 3 -3.3 0.1 -3.3 0 6.5 5.8 c6.6 5.8 8.7 10.2 4.9 10.2 -1 0 -44.8 -38.7 -97.3 -86z"/>
  <path d="M391 335.2 c0 -2 3.2 -3.2 8.6 -3.2 1.7 0 2.4 -0.6 2.4 -2 0 -1.1 0.6 -2.3 1.4 -2.6 0.8 -0.3 2 -2.5 2.7 -5 1 -3.2 1.9 -4.4 3.2 -4.4 1.7 0 1.8 0.5 1.2 3.8 -1.4 7.7 -7.2 13.1 -15.7 14.7 -3.4 0.6 -3.8 0.5 -3.8 -1.3z"/>
  <path d="M42 333.7 c-4.3 -2.8 -6.7 -7 -8 -13.6 -1.1 -6 -0.5 -10.1 1.6 -10.1 0.9 0 1.4 1.2 1.4 3.5 0 4.2 2.1 12.5 3.2 12.5 0.4 0 0.8 0.9 0.8 2 0 1.3 0.7 2 2 2 1.1 0 2 0.5 2 1 0 0.6 0.9 1 2 1 1.3 0 2 0.7 2 2 0 2.7 -2.8 2.6 -7 -0.3z"/>
  <path d="M302.1 310.6 c-3.4 -3.4 -4.2 -4.9 -3.9 -7.2 0.3 -2.9 0.3 -2.9 7.8 4.3 l7.5 7.2 -3.5 0.1 c-2.9 0 -4.4 -0.8 -7.9 -4.4z"/>
  <path d="M260.1 269.6 c-2.4 -2.5 -3.2 -4.1 -2.9 -6.2 l0.3 -2.8 6.5 6.1 6.5 6.2 -3.6 0.1 c-2.7 0 -4.2 -0.8 -6.8 -3.4z"/>
  <path d="M174 265.5 c0 -0.8 -0.4 -1.5 -1 -1.5 -0.5 0 -1 -0.7 -1 -1.5 0 -0.8 -0.4 -1.5 -1 -1.5 -0.5 0 -1 -0.7 -1 -1.5 0 -0.8 -0.4 -1.5 -1 -1.5 -0.5 0 -1 -1.6 -1 -3.6 0 -4.6 1.3 -3.7 6.7 4.7 2.1 3.2 4.1 5.9 4.5 5.9 0.4 0 0.9 -1 1.1 -2.2 0.3 -1.7 0.5 -1.4 0.6 1 0.1 3 -0.1 3.2 -3.4 3.2 -2.4 0 -3.5 -0.5 -3.5 -1.5z"/>
  <path d="M181 259 c0 -1.2 12.8 -55.6 13.6 -57.9 0.4 -1.2 0.7 -1.2 2 0.1 1.4 1.3 0.8 4.5 -5.3 30.1 -5.7 24.1 -7.1 28.7 -8.5 28.7 -1 0 -1.8 -0.5 -1.8 -1z"/>
  <path d="M161 246.5 c0 -0.8 -0.4 -1.5 -1 -1.5 -0.5 0 -1 -1.6 -1 -3.5 0 -3.1 -0.3 -3.5 -2.5 -3.5 -1.6 0 -2.5 -0.6 -2.5 -1.5 0 -0.8 -0.4 -1.5 -1 -1.5 -0.5 0 -1 -0.7 -1 -1.5 0 -0.8 -0.4 -1.5 -1 -1.5 -0.5 0 -1 -0.7 -1 -1.5 0 -0.8 -0.4 -1.5 -1 -1.5 -0.5 0 -1 -0.7 -1 -1.5 0 -0.8 -0.4 -1.5 -1 -1.5 -0.5 0 -1 -0.7 -1 -1.5 0 -0.8 -0.4 -1.5 -1 -1.5 -0.5 0 -1 -1.6 -1 -3.5 0 -3.1 -0.3 -3.5 -2.5 -3.5 -1.6 0 -2.5 -0.6 -2.5 -1.5 0 -0.8 -0.4 -1.5 -1 -1.5 -0.5 0 -1 -1.6 -1 -3.6 0 -2 0.4 -3.3 1 -2.9 0.5 0.3 4.9 6.3 9.7 13.3 4.7 7 11.1 16.2 14 20.5 l5.4 7.7 -3 0 c-2.1 0 -3.1 -0.5 -3.1 -1.5z"/>
  <path d="M218.1 228.6 c-3.4 -3.4 -4.2 -4.9 -3.9 -7.2 0.3 -2.9 0.3 -2.9 7.8 4.3 l7.5 7.2 -3.5 0.1 c-2.9 0 -4.4 -0.8 -7.9 -4.4z"/>
  <path d="M169.4 220.5 c-0.3 -0.8 -2.5 -2.5 -4.8 -3.9 -2.9 -1.7 -6.7 -5.8 -11.7 -12.6 -10 -13.6 -11.8 -14.5 -27.7 -13.5 -9.4 0.5 -12.6 0.4 -16.2 -0.9 -2.5 -0.9 -5.5 -1.6 -6.7 -1.6 -2.6 0 -2.8 -0.8 -0.9 -3.5 0.7 -1.1 1.6 -3.7 2 -5.7 0.4 -2.2 3.3 -7.4 7.2 -12.8 10.9 -15.1 11.1 -16.7 5 -32.6 -2.3 -6.1 -3.5 -11.3 -3.9 -16.4 l-0.5 -7.5 8.6 0.6 c5.7 0.4 12 1.6 18.5 3.7 5.3 1.8 10.9 3.2 12.2 3.2 4.2 0 9.2 -2.6 16.9 -8.8 4 -3.2 8.8 -6.4 10.7 -7.1 1.9 -0.6 5.1 -2 7.2 -3.1 l3.7 -1.8 0 2.4 c0 1.4 0.8 3.6 1.7 5 1.3 2 1.8 6 2.3 16.8 0.9 18.5 1.5 19.6 14.5 28.1 4.6 2.9 10.3 7.8 13.3 11.3 5.3 6.1 5.4 6.2 3 7.1 -1.3 0.5 -3 1.6 -3.8 2.6 -2 2.5 -7.4 4.9 -18.5 8.6 -11.4 3.6 -16.5 7.7 -18.4 14.4 -4 14.9 -5.4 18.7 -7.6 21.3 -1.3 1.5 -2.7 4 -3 5.5 -0.8 3 -2.2 3.5 -3.1 1.2z m3.9 -21.7 c3.7 -14.6 5.6 -18.9 10 -22.1 1.5 -1.2 9.8 -4.4 18.4 -7.2 l15.6 -5.1 -11.3 -6.9 c-13.2 -8.1 -17.5 -12 -18.9 -17.2 -0.6 -2.1 -1.1 -11.1 -1.1 -20.1 l0 -16.4 -10.2 8.5 c-13.8 11.2 -15.6 12.1 -24.8 12 -6.2 0 -9.8 -0.8 -20.7 -4.6 l-13.1 -4.5 2.4 6.4 c1.3 3.5 3.5 9.2 4.9 12.6 1.9 4.8 2.5 7.9 2.5 14 0 9.1 -0.7 10.9 -9 21.8 -3.1 4.1 -6.6 8.9 -7.8 10.7 l-2.3 3.2 17.4 -0.6 c23.6 -0.8 22.7 -1.3 38.2 21 3.2 4.7 6 8.5 6.1 8.4 0.2 -0.1 1.8 -6.4 3.7 -13.9z"/>
  <path d="M61.8 211.3 c-2.4 -0.4 -2.8 -0.9 -2.8 -3.9 0 -2.4 0.5 -3.4 1.5 -3.4 0.8 0 1.5 -0.9 1.5 -2 0 -1.1 0.7 -2 1.5 -2 0.8 0 1.5 -0.9 1.5 -2 0 -1.3 0.7 -2 2 -2 1.5 0 2 -0.7 2 -2.5 0 -1.6 0.6 -2.5 1.5 -2.5 0.8 0 1.5 -0.9 1.5 -2 0 -1.1 0.7 -2 1.5 -2 0.8 0 1.5 -0.9 1.5 -2 0 -1.3 0.7 -2 2 -2 1.5 0 2 -0.7 2 -2.5 0 -1.6 0.6 -2.5 1.5 -2.5 0.8 0 1.5 -0.9 1.5 -2 0 -1.1 0.7 -2 1.5 -2 0.8 0 1.5 -0.9 1.5 -2 0 -1.1 0.7 -2 1.5 -2 0.9 0 1.5 -0.9 1.5 -2.1 0 -1.2 0.8 -2.3 2 -2.6 1.1 -0.3 2 -1.4 2 -2.4 0 -1.1 0.7 -1.9 1.5 -1.9 0.8 0 1.5 -0.9 1.5 -2 0 -1.6 0.7 -2 3.1 -2 2.4 0 2.9 0.3 2.2 1.3 -0.5 0.6 -9.1 11.8 -19 24.7 -9.8 12.9 -18.3 24.1 -18.7 24.8 -0.7 1.1 0.2 1.2 4.8 0.7 5.3 -0.7 5.6 -0.6 5.6 1.4 0 1.8 -0.5 2.1 -4.2 2 -2.4 -0.1 -5.5 -0.4 -7 -0.6z"/>
  <path d="M76 209.6 c0 -0.7 1 -1.6 2.3 -2 4.1 -1.1 5.7 -0.7 5.7 1.4 0 1.7 -0.7 2 -4 2 -2.7 0 -4 -0.4 -4 -1.4z"/>
  <path d="M88 208.6 c0 -0.7 1 -1.6 2.3 -2 4.1 -1.1 5.7 -0.7 5.7 1.4 0 1.7 -0.7 2 -4 2 -2.7 0 -4 -0.4 -4 -1.4z"/>
  <path d="M101 207.6 c0 -1.3 2.8 -2.6 5.8 -2.6 0.6 0 1.2 0.9 1.2 2 0 1.6 -0.7 2 -3.5 2 -2.3 0 -3.5 -0.5 -3.5 -1.4z"/>
  <path d="M113 206.6 c0 -0.7 1 -1.6 2.3 -2 4.1 -1.1 5.7 -0.7 5.7 1.4 0 1.7 -0.7 2 -4 2 -2.7 0 -4 -0.4 -4 -1.4z"/>
  <path d="M125 205.6 c0 -0.7 1 -1.6 2.3 -2 4.1 -1.1 5.7 -0.7 5.7 1.4 0 1.7 -0.7 2 -4 2 -2.7 0 -4 -0.4 -4 -1.4z"/>
  <path d="M102 151.6 c0 -1.9 0.6 -3.7 1.3 -4 1 -0.5 1 -0.7 0 -1.2 -0.7 -0.3 -1.3 -2.1 -1.3 -4 0 -2.4 -0.5 -3.4 -1.5 -3.4 -0.9 0 -1.5 -0.9 -1.5 -2.5 0 -1.4 -0.4 -2.5 -1 -2.5 -0.5 0 -1 -1.6 -1 -3.5 0 -2.4 -0.5 -3.5 -1.5 -3.5 -1 0 -1.5 -1.1 -1.5 -3.5 0 -2.4 -0.5 -3.5 -1.5 -3.5 -0.9 0 -1.5 -0.9 -1.5 -2.5 0 -1.4 -0.4 -2.5 -1 -2.5 -0.5 0 -1 -1.6 -1 -3.5 0 -2.4 -0.5 -3.5 -1.5 -3.5 -1.1 0 -1.5 -1.1 -1.5 -3.6 0 -2.3 0.4 -3.4 1.2 -3.2 0.6 0.2 5.6 10.9 11 23.8 l9.8 23.3 -2.5 3.3 c-1.5 1.9 -2.8 3.4 -3.1 3.4 -0.2 0 -0.4 -1.5 -0.4 -3.4z"/>
  <path d="M206 118.3 c0 -5.3 1 -8.3 2.6 -8.3 1 0 1.4 1.6 1.4 6 0 5.3 -0.2 6 -2 6 -1.6 0 -2 -0.7 -2 -3.7z"/>
  <path d="M146.1 103.2 c-2.4 -0.9 -4.6 -2.3 -4.9 -3.1 -0.4 -1.1 0.8 -1.2 6.2 -0.7 6 0.7 6.6 0.6 6.6 -1.1 0 -2.6 1.9 -4.3 4.7 -4.3 1.5 0 2.3 -0.6 2.3 -1.8 0 -2.5 1.9 -4.2 4.7 -4.2 1.5 0 2.3 -0.6 2.3 -1.8 0 -2.7 2 -4.2 5.7 -4.2 3 0 3.3 -0.3 3.3 -3 0 -2.8 0.3 -3 3.5 -3 3.2 0 3.5 -0.2 3.5 -3 0 -2.8 0.3 -3 3.5 -3 3.2 0 3.5 -0.2 3.5 -3 0 -2.8 0.3 -3 3.5 -3 3.2 0 3.5 -0.2 3.5 -3 0 -2.8 0.3 -3 3.7 -3 4.4 0 5.4 -1.1 -11.3 13.2 -6.6 5.6 -18.1 15.6 -25.6 22.1 -7.5 6.4 -13.7 11.7 -13.9 11.6 -0.2 0 -2.4 -0.8 -4.8 -1.7z"/>
  <path d="M132.1 98.1 c-6.4 -2.3 -6.8 -4.5 -0.7 -3.9 5.4 0.6 5.9 0.9 5.4 3.6 -0.3 1.9 -0.4 1.9 -4.7 0.3z"/>
  <path d="M81 92.4 c0 -4.4 1.8 -4.2 3.7 0.4 1.3 3.1 1.2 3.2 -1.2 3.2 -2.2 0 -2.5 -0.4 -2.5 -3.6z"/>
  <path d="M116.6 92.7 c-6.5 -2.4 -8.5 -4.7 -4 -4.7 1.4 0 4.4 0.5 6.5 1.2 3.1 0.9 3.9 1.6 3.9 3.5 0 1.2 -0.1 2.3 -0.2 2.2 -0.2 0 -3 -1 -6.2 -2.2z"/>
  <path d="M207.1 83.3 c0.3 -7.5 0.8 -9.3 2.5 -9.3 1.1 0 1.4 1.8 1.4 7.5 0 6.9 -0.2 7.5 -2.1 7.5 -1.9 0 -2 -0.5 -1.8 -5.7z"/>
  <path d="M406.6 83.5 c-0.4 -2.5 -1.1 -4.5 -1.7 -4.5 -0.5 0 -0.9 -0.9 -0.9 -2 0 -1.3 -0.7 -2 -2 -2 -1.1 0 -2 -0.7 -2 -1.5 0 -1 -1.1 -1.5 -3.5 -1.5 -2.8 0 -3.5 -0.4 -3.5 -2 0 -2.5 2.8 -2.6 7.3 -0.4 6.4 3.3 8.9 6.8 10.2 14.2 0.6 3.8 0.5 4.2 -1.3 4.2 -1.6 0 -2.1 -0.9 -2.6 -4.5z"/>
  <path d="M94.8 84.9 c-2.9 -1.6 -2.1 -2.9 1.7 -2.9 2.8 0 3.5 0.4 3.5 2 0 2.2 -2.4 2.6 -5.2 0.9z"/>
  <path d="M76 80.4 l0 -3.7 5.7 0.7 c9.2 1.1 10.3 1.5 10.3 4.2 l0 2.4 -5.2 -2 c-6.6 -2.5 -7.2 -2.5 -6.5 0 0.4 1.6 0 2 -1.9 2 -2.1 0 -2.4 -0.5 -2.4 -3.6z"/>
  <path d="M234 69 c0 -2.1 1 -2.4 4.8 -1.4 3.6 1 2.7 3.4 -1.3 3.4 -2.8 0 -3.5 -0.4 -3.5 -2z"/>
  <path d="M224 65 c0 -1.3 -0.7 -2 -2 -2 -1.6 0 -2 -0.7 -2 -3.5 0 -4.3 1.4 -4.5 3.5 -0.6 0.8 1.7 2.8 3.8 4.5 4.8 3.9 2.3 3.8 3.3 -0.5 3.3 -2.8 0 -3.5 -0.4 -3.5 -2z"/>
  <path d="M216.6 44.9 c-0.3 -1.7 -1.7 -4 -3.1 -5.1 -1.4 -1.1 -2.5 -2.5 -2.5 -3.2 0 -1.6 -6.4 -2.6 -15.6 -2.6 -5.9 0 -6.4 -0.2 -6.4 -2.1 0 -2.1 0.3 -2.2 9.4 -1.6 14 0.8 20.4 4.9 22.1 14 0.6 3.3 0.5 3.7 -1.3 3.7 -1.4 0 -2.1 -0.9 -2.6 -3.1z"/>
  <path d="M38 37 c1.2 -1.6 2.6 -3 3.1 -3 0.5 0 0.9 1.4 0.9 3 0 2.7 -0.3 3 -3.1 3 l-3 0 2.1 -3z"/>
  <path d="M49 32.6 c0 -1.3 2.8 -2.6 5.8 -2.6 0.6 0 1.2 0.9 1.2 2 0 1.6 -0.7 2 -3.5 2 -2.3 0 -3.5 -0.5 -3.5 -1.4z"/>
  <path d="M58 32 c0 -1.9 0.7 -2 10.5 -2 9.8 0 10.5 0.1 10.5 2 0 1.9 -0.7 2 -10.5 2 -9.8 0 -10.5 -0.1 -10.5 -2z"/>
 </g>
 <g fill="#fe8800">
  <path d="M96 128.5 c0 -2.4 -0.5 -3.5 -1.5 -3.5 -1 0 -1.5 -1.1 -1.5 -3.5 0 -6.5 2.4 -3.7 7.1 8.3 0.7 1.9 0.5 2.2 -1.6 2.2 -2.2 0 -2.5 -0.4 -2.5 -3.5z"/>
  <path d="M34.2 78.2 l0.3 -35.9 2.8 -4.1 c5.6 -8 1.4 -7.6 80.5 -8 38.7 -0.2 71.9 -0.1 73.8 0.2 2 0.4 3.4 1.3 3.4 2.1 0 1.2 -1.5 1.5 -6.5 1.5 -6.3 0 -16.5 3.2 -16.5 5.2 0 0.4 -0.7 0.8 -1.6 0.8 -0.9 0 -2.8 0.8 -4.2 1.9 -1.5 1 -5.1 2.9 -7.9 4.2 -2.9 1.3 -5.3 2.7 -5.3 3.1 0 0.5 -0.5 0.8 -1.2 0.8 -0.6 0 -1.9 0.6 -2.7 1.3 -0.9 0.8 -3.2 2 -5.1 2.7 -1.9 0.8 -3.7 1.7 -4 2 -0.3 0.4 -3.4 2.2 -7 4.1 -3.6 1.8 -6.7 3.6 -7 3.9 -0.3 0.3 -4.4 2.6 -9.2 5 -4.9 2.5 -8.8 4.8 -8.8 5.2 0 0.5 -0.7 0.8 -1.5 0.8 -1.6 0 -4.6 1.5 -8.2 4.1 -2.3 1.7 -2.1 1.8 7.2 5 8.1 2.9 9.5 3.7 9.5 5.6 0 2.4 -0.1 2.4 -29.4 -8.3 -2.1 -0.8 -4.4 -1.4 -5.1 -1.4 -0.8 0 1.2 6 5.5 16.3 6.4 15.1 6.7 16.2 4.8 16.5 -2.4 0.4 -3.8 -1.3 -3.8 -4.5 0 -1.3 -0.4 -2.3 -0.9 -2.3 -1 0 -4.1 -7.8 -4.1 -10.3 0 -0.9 -0.4 -1.7 -0.9 -1.7 -0.5 0 -1.3 -0.9 -1.6 -2 -0.7 -2.3 -1.8 -2.5 -3.7 -0.7 -0.7 0.8 -2.6 1.7 -4.1 2.1 -1.5 0.3 -2.7 1.1 -2.7 1.6 0 0.6 -0.4 1 -0.9 1 -1.5 0 -5.2 1.8 -9.6 4.5 -2.2 1.4 -5.1 3.1 -6.5 3.8 -1.4 0.6 -3.1 1.7 -3.8 2.4 -0.7 0.7 -2.4 1.6 -3.8 1.9 -1.3 0.3 -2.4 1 -2.4 1.5 0 0.5 -0.9 0.9 -2 0.9 -1.1 0 -2 0.7 -2 1.5 0 0.8 -0.9 1.5 -2 1.5 -2.1 0 -2.1 -0.4 -1.8 -35.8z"/>
  <path d="M138.1 100.1 c-6.4 -2.3 -6.8 -4.5 -0.7 -3.9 5.4 0.6 5.9 0.9 5.4 3.6 -0.3 1.9 -0.4 1.9 -4.7 0.3z"/>
  <path d="M124.1 95.1 c-6.4 -2.3 -6.8 -4.5 -0.7 -3.9 5.4 0.6 5.9 0.9 5.4 3.6 -0.3 1.9 -0.4 1.9 -4.7 0.3z"/>
  <path d="M207 88.8 c0 -3 1.3 -5.8 2.6 -5.8 0.9 0 1.4 1.2 1.4 3.5 0 2.8 -0.4 3.5 -2 3.5 -1.1 0 -2 -0.6 -2 -1.2z"/>
  <path d="M171 84.1 c0 -2.9 0.2 -3.1 3.5 -3.1 3.2 0 3.5 -0.2 3.5 -3 0 -2.8 0.3 -3 3.5 -3 3.2 0 3.5 -0.2 3.5 -3 0 -2.8 0.3 -3 3.5 -3 3.2 0 3.5 -0.2 3.5 -3 0 -2.8 0.3 -3 3.5 -3 3.2 0 3.5 -0.2 3.5 -3 0 -2.8 0.3 -3 3.7 -3 4.5 0 5.7 -1.4 -14.2 15.6 -19.3 16.4 -17.5 15.2 -17.5 11.5z"/>
  <path d="M209 36 c0 -0.5 -1.1 -1 -2.5 -1 -1.8 0 -2.5 -0.5 -2.5 -2 0 -1.1 0.7 -2 1.5 -2 2.4 0 7.9 2.5 9.4 4.3 1.2 1.5 1 1.7 -2.3 1.7 -2 0 -3.6 -0.4 -3.6 -1z"/>
 </g>
 <g fill="#fe9213">
  <path d="M78 182.6 c0 -3.3 0.2 -3.6 3.1 -3.6 l3 0 -2.1 3 c-3.1 4.4 -4 4.5 -4 0.6z"/>
  <path d="M91 165.6 c0 -3.3 0.2 -3.6 3.1 -3.6 l3 0 -2.1 3 c-3.1 4.4 -4 4.5 -4 0.6z"/>
  <path d="M98 156.6 c0 -3.3 0.2 -3.6 3.1 -3.6 l3 0 -2.1 3 c-3.1 4.4 -4 4.5 -4 0.6z"/>
  <path d="M103 146.5 c0 -1.4 -0.4 -2.5 -1 -2.5 -0.5 0 -1 -1.6 -1 -3.5 0 -2.4 -0.5 -3.5 -1.5 -3.5 -1 0 -1.5 -1.1 -1.5 -3.5 0 -2.4 -0.5 -3.5 -1.5 -3.5 -1 0 -1.5 -1.1 -1.5 -3.5 0 -2.4 -0.5 -3.5 -1.5 -3.5 -0.9 0 -1.5 -0.9 -1.5 -2.1 0 -1.1 -0.7 -2.7 -1.5 -3.5 -0.8 -0.9 -1.5 -2.4 -1.5 -3.5 0 -1 -0.7 -1.9 -1.5 -1.9 -0.8 0 -1.5 0.4 -1.5 1 0 0.5 -1.1 1.2 -2.5 1.6 -1.4 0.3 -2.5 1 -2.5 1.4 0 0.5 -3.6 2.5 -8 4.6 -4.4 2.1 -8 4.2 -8 4.6 0 0.4 -1.1 0.8 -2.4 0.8 -1.3 0 -2.6 0.4 -2.8 0.9 -0.5 1.4 -8.7 6.1 -10.7 6.1 -1.1 0 -2.1 0.3 -2.3 0.8 -0.8 1.9 -7 5.2 -9.8 5.2 l-3.1 0 0.5 -15.2 c0.6 -19.1 0.6 -19.1 1.3 -18.4 0.3 0.3 1.8 -0.3 3.3 -1.4 1.6 -1.1 3.4 -2 4.2 -2 0.8 0 2 -0.6 2.6 -1.2 1 -1 1.5 -1 2.3 0.2 0.9 1.2 1 1.2 0.5 -0.3 -0.4 -1.3 0 -2 1.4 -2.4 1.1 -0.3 1.7 -1 1.3 -1.6 -0.3 -0.5 -0.2 -0.7 0.4 -0.4 0.5 0.3 2.5 -0.3 4.4 -1.5 l3.4 -2 -1.9 2.1 c-1.1 1.2 -1.4 2.1 -0.7 2.1 0.6 0 2 -1.5 3.1 -3.2 1.1 -1.8 2 -2.9 2 -2.5 0 0.5 1 0.1 2.2 -0.7 2.5 -1.8 4.2 -2.1 3.3 -0.6 -0.4 0.6 0.1 0.7 1.1 0.3 1.1 -0.4 1.3 -0.8 0.6 -1.1 -1.7 -0.5 -1.5 -1.9 0.5 -2.6 1 -0.3 2.5 -0.9 3.3 -1.3 1.3 -0.5 1.3 -0.4 0.1 1 -1.7 2.2 -0.9 2.1 3.7 -0.1 l3.8 -1.8 12.2 28.5 c17.3 40.8 15.7 36.1 12.7 36.1 -2 0 -2.5 -0.5 -2.5 -2.5z m-59 -42 c1.6 -0.9 1.9 -1.4 0.9 -1.5 -0.8 0 -2.4 0.7 -3.5 1.5 -2.4 1.8 -0.7 1.9 2.6 0z m11 -7.1 c0 -0.2 -1.1 0.2 -2.5 0.8 -1.4 0.6 -2.5 1.5 -2.5 2 0 0.5 1.1 0.1 2.5 -0.8 1.4 -0.9 2.5 -1.8 2.5 -2z m10.9 -5 c0.2 -0.2 0.2 -0.7 -0.2 -1 -0.3 -0.3 -1.6 0.2 -2.9 1.1 l-2.3 1.7 2.5 -0.7 c1.4 -0.4 2.7 -0.9 2.9 -1.1z"/>
  <path d="M206 121.8 c0 -3 1.3 -5.8 2.6 -5.8 0.9 0 1.4 1.2 1.4 3.5 0 2.8 -0.4 3.5 -2 3.5 -1.1 0 -2 -0.6 -2 -1.2z"/>
  <path d="M144.1 102.1 c-6.4 -2.3 -6.8 -4.5 -0.7 -3.9 5.4 0.6 5.9 0.9 5.4 3.6 -0.3 1.9 -0.4 1.9 -4.7 0.3z"/>
  <path d="M150 101.5 c0 -2.2 0.4 -2.5 3.5 -2.5 3.2 0 3.5 -0.2 3.5 -3 0 -2.8 0.3 -3 3.5 -3 3.2 0 3.5 -0.2 3.5 -3 0 -2.8 0.3 -3 3.7 -3 4.3 0 4.8 -0.7 -7.5 9.9 -4.6 3.9 -8.7 7.1 -9.3 7.1 -0.5 0 -0.9 -1.1 -0.9 -2.5z"/>
  <path d="M112.5 90.8 c-13.7 -5 -25.2 -9.3 -25.5 -9.5 -0.3 -0.2 0.3 -0.9 1.3 -1.4 0.9 -0.6 1.7 -1.5 1.7 -2.1 0 -0.6 -1.1 -0.1 -2.5 1.2 -1.8 1.7 -2.5 1.9 -2.5 0.9 0 -0.8 2 -2.5 4.5 -3.7 5.6 -2.7 6.8 -2.8 3.5 -0.2 -1.4 1.1 -2 2 -1.4 2 0.6 0 2.2 -0.8 3.5 -1.8 1.3 -1 3.2 -2.2 4.2 -2.5 1.1 -0.4 2.1 -1.6 2.4 -2.6 0.3 -1.1 2 -2.7 3.8 -3.5 3.9 -1.9 5.9 -2.1 4.9 -0.4 -0.4 0.7 -0.3 0.8 0.4 0.4 0.6 -0.4 0.8 -1.4 0.5 -2.4 -0.5 -1.4 -0.3 -1.5 0.8 -0.4 1.6 1.5 2.9 1.6 2.9 0.1 0 -0.5 -0.4 -0.7 -1 -0.4 -0.5 0.3 -1 0.2 -1 -0.2 0 -1 12.1 -7.5 12.8 -6.9 0.2 0.3 -0.6 0.9 -1.7 1.6 -1.2 0.6 -2.1 1.6 -2.1 2.3 0 0.8 0.3 0.8 0.8 0.2 0.4 -0.6 2.8 -2.2 5.5 -3.5 2.6 -1.4 4.7 -2.9 4.7 -3.3 0 -0.5 -0.6 -0.5 -1.2 -0.1 -0.7 0.4 -0.6 0 0.2 -0.8 1.9 -1.8 7.4 -4.2 6.5 -2.8 -0.8 1.3 -0.2 1.3 3.2 -0.2 4.1 -1.7 6.2 -3.8 5.6 -5.4 -0.7 -1.8 4.7 -4 5.7 -2.3 0.5 0.8 2.2 0.3 5.6 -1.6 4.8 -2.6 7.4 -4.5 6.2 -4.5 -0.3 0 -2.6 1.1 -4.9 2.5 -4.7 2.7 -7.1 3.3 -5 1.3 0.6 -0.7 1.5 -1.3 1.9 -1.3 0.4 -0.1 2.1 -0.8 3.8 -1.7 1.7 -1 4.1 -1.4 5.3 -1.1 1.3 0.3 2.6 0.1 3 -0.4 0.3 -0.6 2.8 -2 5.5 -3.3 4.5 -2 6.1 -2.1 20.1 -1.8 14.9 0.3 15.2 0.4 18.9 3.1 4.5 3.5 6.3 6.1 7.1 11 0.6 3.3 0.5 3.7 -1.3 3.7 -1.4 0 -2.1 -0.9 -2.6 -3.1 -0.5 -2.8 -0.9 -3.1 -3.3 -2.4 -1.5 0.3 -3 1 -3.3 1.5 -0.3 0.4 -4.1 2.7 -8.5 5 -4.4 2.3 -9.5 5.3 -11.5 6.6 -1.9 1.3 -4 2.4 -4.7 2.4 -0.7 0 -1.3 0.5 -1.3 1 0 0.6 -0.7 1 -1.5 1 -1.9 0 -5.8 2.1 -6.8 3.8 -0.4 0.6 -1.7 1.2 -2.7 1.2 -1.1 0 -2 0.5 -2 1 0 0.6 -0.7 1 -1.6 1 -1.9 0 -7 2.7 -9.8 5.3 -1.1 0.9 -3.2 1.7 -4.8 1.7 -1.8 0 -2.8 0.5 -2.8 1.5 0 0.8 -0.7 1.5 -1.5 1.5 -0.8 0 -2.3 0.8 -3.3 1.8 -1 1 -3.3 2.4 -5.2 3.2 -1.9 0.7 -4.6 2.1 -6 3 -1.4 0.9 -4 2.2 -5.7 2.9 -4.7 1.9 -4.1 3.4 1.9 4.9 6 1.4 6.1 1.4 5.6 4 -0.3 1.9 -2.1 1.4 -25.3 -7z m-7.5 -19.7 c0 -0.5 0.9 -1.3 2 -1.6 1.1 -0.3 2 -1 2 -1.5 0 -0.5 -1.3 -0.1 -3 0.8 -3 1.7 -3.9 3.2 -2 3.2 0.6 0 1 -0.4 1 -0.9z m15.5 -9.1 c0.3 -0.6 0.3 -1 -0.2 -1 -1.1 0.1 -4.3 2.6 -4.3 3.4 0 0.9 3.7 -1.1 4.5 -2.4z"/>
  <path d="M207 91.3 c0 -4.3 1.1 -7.3 2.6 -7.3 1 0 1.4 1.4 1.4 5 0 4.3 -0.3 5 -2 5 -1.5 0 -2 -0.7 -2 -2.7z"/>
  <path d="M172 83 c0 -2.8 0.3 -3 3.5 -3 3.2 0 3.5 -0.2 3.5 -3 0 -2.8 0.3 -3 3.5 -3 3.2 0 3.5 -0.2 3.5 -3 0 -2.8 0.3 -3 3.5 -3 3.2 0 3.5 -0.2 3.5 -3 0 -2.8 0.3 -3 3.5 -3 3.2 0 3.5 -0.3 3.5 -2.8 0 -4 2.8 -6.2 7.8 -6.2 l4.2 0 0 5 c0 4.3 -0.3 5 -1.9 5 -1.5 0 -2.1 -0.8 -2.3 -3.4 l-0.3 -3.5 -17.4 15 c-9.6 8.2 -17.6 14.9 -17.8 14.9 -0.2 0 -0.3 -1.3 -0.3 -3z"/>
  <path d="M96.5 73 c0.9 -1.5 4.5 -3.2 4.5 -2.2 0 0.5 -1.2 1.4 -2.6 2 -1.4 0.7 -2.3 0.8 -1.9 0.2z"/>
  <path d="M228.3 69.3 c-0.7 -0.2 -1.3 -1.6 -1.3 -3 0 -1.3 0.3 -2.3 0.8 -2.1 0.4 0.2 2.4 1 4.5 1.8 4.6 1.8 4.9 4 0.5 3.9 -1.8 0 -3.9 -0.3 -4.5 -0.6z"/>
  <path d="M218 53.5 c0 -4 2.4 -4.9 3.4 -1.2 1 3.7 0.7 4.7 -1.4 4.7 -1.6 0 -2 -0.7 -2 -3.5z"/>
  <path d="M141 48.6 c2 -1.8 6.5 -3.2 5.6 -1.7 -0.4 0.6 -1.6 1.1 -2.7 1.1 -1 0 -1.9 0.5 -1.9 1 0 0.6 -0.5 1 -1.2 1 -0.8 0 -0.8 -0.4 0.2 -1.4z"/>
  <path d="M169.3 33.3 c0.9 -1.4 4.7 -2.4 4.7 -1.2 0 0.5 -0.4 0.9 -0.9 0.9 -0.5 0 -1.7 0.3 -2.7 0.7 -1.1 0.4 -1.5 0.3 -1.1 -0.4z"/>
 </g>
 <g fill="#fe9e29">
  <path d="M102 207.6 c0 -1.3 2.8 -2.6 5.8 -2.6 0.6 0 1.2 0.9 1.2 2 0 1.6 -0.7 2 -3.5 2 -2.3 0 -3.5 -0.5 -3.5 -1.4z"/>
  <path d="M61 204.6 c0 -3.3 0.2 -3.6 3.1 -3.6 l3 0 -2.1 3 c-3.1 4.4 -4 4.5 -4 0.6z"/>
  <path d="M68 195.8 c0 -2.7 0.4 -3.8 1.5 -3.8 0.8 0 1.5 -0.9 1.5 -2 0 -1.1 0.7 -2 1.5 -2 0.8 0 1.5 -0.9 1.5 -2 0 -1.6 0.7 -2 3.1 -2 l3 0 -3.2 4.4 c-1.7 2.5 -4.4 6 -6 7.8 l-2.8 3.3 -0.1 -3.7z"/>
  <path d="M81 178.6 c0 -2.5 0.4 -3.6 1.5 -3.6 0.8 0 1.5 -0.9 1.5 -2 0 -1.6 0.7 -2 3.1 -2 l3 0 -3.2 4.5 c-5 6.9 -5.9 7.4 -5.9 3.1z"/>
  <path d="M34 154.2 c0 -15 0.3 -19.2 1.5 -20.8 0.8 -1 1.5 -1.4 1.5 -0.9 0 0.6 -0.5 1.6 -1.2 2.3 -2.1 2.1 1.1 1.4 3.9 -0.8 1.4 -1.1 2.1 -2 1.5 -2 -0.6 0 -0.9 -0.7 -0.6 -1.5 0.6 -1.4 0.8 -1.3 2 0.2 1 1.2 1.3 1.3 1.2 0.4 -0.2 -1 0.7 -1.5 2.6 -1.5 1.7 -0.1 3.1 -0.7 3.4 -1.6 0.4 -1.2 0.2 -1.3 -0.9 -0.2 -1.5 1.4 -2.9 1.6 -2.9 0.4 0 -0.4 2 -1.8 4.4 -2.9 3.4 -1.7 4.6 -1.9 5.6 -1 1 0.9 1.2 0.9 0.8 -0.3 -0.4 -1 0.5 -2.2 2.3 -3.2 1.6 -1 2.9 -1.3 2.9 -0.8 0 0.5 -0.8 1.4 -1.7 1.9 -1.7 1 -1.7 1 0 1.1 0.9 0 1.7 -0.4 1.7 -0.9 0 -0.5 1.4 -1.4 3 -2.1 1.7 -0.7 3.3 -1.7 3.6 -2.2 0.4 -0.6 -0.3 -0.5 -1.4 0.1 -1.1 0.6 -2.4 1.1 -2.9 1.1 -1.3 -0.1 4.1 -4 5.5 -4 0.6 0 1.2 -0.5 1.2 -1.2 0 -0.6 0.3 -0.9 0.6 -0.6 0.3 0.4 0 1.7 -0.7 3 l-1.2 2.3 2.3 -2 c1.2 -1.1 2.4 -1.9 2.6 -1.7 0.2 0.1 0.7 0.2 1.2 0.1 0.4 0 -0.2 -0.4 -1.3 -0.8 -1.8 -0.8 -1.8 -1 1 -2.2 1.7 -0.7 4.4 -2.4 6.2 -3.7 3 -2.2 3.2 -2.2 4.2 -0.5 1.1 1.7 1.1 1.7 0.9 -0.1 -0.5 -3.3 2 -2.9 3.6 0.6 0.9 1.8 4.5 10.1 8 18.3 6.1 14.2 6.4 15 4.4 15.3 -1.2 0.2 -2.5 -0.3 -3 -1.2 -1 -1.8 -2.9 -1.1 -11.8 4.2 -8.5 5.1 -13.7 7.8 -21 11.2 -2.4 1.2 -4.7 2.4 -5 2.8 -0.3 0.4 -4.4 2.7 -9.2 5.2 -12.3 6.3 -12.8 6.6 -14.1 7.9 -0.6 0.6 -1.9 1.1 -2.9 1.1 -1.7 0 -1.8 -1.4 -1.8 -18.8z"/>
  <path d="M94 161.6 c0 -2.5 0.4 -3.6 1.5 -3.6 0.8 0 1.5 -0.9 1.5 -2 0 -1.3 0.7 -2 2 -2 1.5 0 2 -0.7 2 -2.5 0 -1.6 0.6 -2.5 1.5 -2.5 0.8 0 1.5 -0.9 1.5 -2 0 -2.4 1.6 -2.6 2.8 -0.3 0.8 1.3 -0.4 3.4 -5.1 9.6 -3.4 4.3 -6.5 8.1 -6.9 8.3 -0.5 0.3 -0.8 -1.1 -0.8 -3z"/>
  <path d="M206 123.8 c0 -3.9 1.2 -6.8 2.6 -6.8 1 0 1.4 1.3 1.4 4.5 0 3.8 -0.3 4.5 -2 4.5 -1.4 0 -2 -0.7 -2 -2.2z"/>
  <path d="M133.5 98.2 c-8.2 -3 -15.2 -5.7 -15.4 -5.9 -0.3 -0.2 0 -0.8 0.6 -1.4 0.6 -0.6 0.9 -1.7 0.7 -2.3 -0.3 -0.7 1.1 -1.8 3.1 -2.5 1.9 -0.7 3.5 -1.7 3.5 -2.3 0 -0.6 0.3 -0.8 0.7 -0.5 0.3 0.4 1.3 0.1 2.2 -0.6 0.9 -0.8 3.2 -2 5.1 -2.7 1.9 -0.7 4.9 -2.3 6.6 -3.6 2.4 -1.8 3.4 -2 4.3 -1.1 0.9 0.9 1.1 0.8 0.6 -0.5 -0.4 -1.1 -0.2 -1.8 0.5 -1.8 0.6 0 2.6 -1 4.3 -2.3 3 -2.1 6.7 -3.4 6.7 -2.3 0 0.3 -1.2 1.2 -2.7 2 -1.6 0.8 -2.1 1.5 -1.3 1.5 2.1 0 5 -2.3 5 -4.1 0 -1.9 5 -4.4 5.1 -2.5 0 0.6 0.4 0.2 0.9 -1 0.5 -1.3 1.6 -2.3 2.4 -2.3 0.8 0 2.1 -0.7 2.9 -1.5 2 -2 7.3 -3.3 6.2 -1.5 -0.5 0.9 -0.4 1.1 0.4 0.6 0.6 -0.4 0.9 -1.1 0.6 -1.6 -0.3 -0.5 0.5 -1.4 1.7 -2.1 1.3 -0.7 2.5 -1.5 2.8 -1.8 1.3 -1.5 7 -3.9 7.5 -3.1 0.3 0.5 -0.5 1.2 -1.7 1.6 -2.2 0.7 -5.6 3.4 -4.3 3.4 0.9 0 12.5 -7.1 12.5 -7.7 0 -0.2 -1.3 0.3 -3 1.2 -5 2.6 -3.3 0.2 1.9 -2.7 3.1 -1.7 5.2 -2.3 5.8 -1.7 1 1 7.3 -1.9 7.3 -3.4 0 -0.5 -1.3 0.1 -2.9 1.2 -3.3 2.4 -4.4 2.6 -3.9 0.9 0.2 -0.6 1.2 -1.2 2.1 -1.4 0.9 -0.1 2.9 -1.1 4.5 -2.3 4.7 -3.3 8.1 -4.3 9.6 -2.8 2.4 2.3 3.6 5.5 4.5 11.9 0.5 3.5 1.4 7.5 2 9 1.4 3.7 8.1 8.4 13.1 9.2 5.8 0.9 5.5 3.6 -0.5 3.6 -3.3 0 -4.5 -0.4 -4.5 -1.5 0 -2.3 -1.3 -1.9 -10.7 3 -12.7 6.7 -12.7 6.7 -12.1 -6 0.3 -7 0.1 -10.5 -0.6 -10.5 -0.6 0 -2.8 1.8 -5.1 3.9 -10.2 9.9 -51 44.1 -52.4 44 -0.9 -0.1 -8.3 -2.6 -16.6 -5.7z m-0.5 -15.3 l2.5 -2 -3.2 1.6 c-1.8 0.8 -3.3 1.8 -3.3 2 0 1 1.6 0.4 4 -1.6z m35 -18.9 c0 -0.5 0.9 -1 2 -1 1 0 2.5 -1 3.1 -2.2 1.2 -2.2 1.1 -2.2 -0.8 -0.5 -1.1 0.9 -2.4 1.7 -2.9 1.7 -0.5 0 -1.8 0.7 -2.8 1.5 -1.7 1.3 -1.8 1.5 -0.3 1.5 0.9 0 1.7 -0.4 1.7 -1z"/>
  <path d="M207.4 91.3 c0.3 -2.1 0.5 -4.4 0.5 -5 0.1 -0.7 0.8 -1.3 1.6 -1.3 1.1 0 1.5 1.2 1.5 5 0 4.4 -0.3 5 -2 5 -1.8 0 -2 -0.5 -1.6 -3.7z"/>
  <path d="M114.5 91.1 c-0.3 -0.5 0.4 -1.3 1.6 -1.6 2.8 -0.9 3.3 -0.2 0.9 1.3 -1.1 0.6 -2.1 0.8 -2.5 0.3z"/>
 </g>
 <g fill="#fee300">
  <path d="M162.4 210 c-17.9 -25.5 -16.2 -24.5 -39.8 -23.6 -9.4 0.4 -18.1 1 -19.3 1.3 -1.4 0.3 -2.3 0.1 -2.3 -0.6 0 -0.7 4.5 -7.2 9.9 -14.6 5.5 -7.4 10.7 -14.7 11.5 -16.4 3 -5.7 2 -11.4 -4.8 -29.1 -3.5 -9.1 -6.1 -16.6 -5.7 -16.8 0.5 -0.1 8.6 2.3 18.2 5.4 18.5 6 23.5 6.7 29 3.9 1.8 -1 9 -6.4 16 -12.1 7 -5.7 13 -10.4 13.2 -10.4 0.3 0 0.7 9.1 0.9 20.3 0.4 26.8 -1.6 23.7 26.2 41.2 l11 6.9 -18.7 6.1 c-10.3 3.4 -20 7.1 -21.5 8.2 -4.4 3.3 -6.2 7.5 -10.4 24.1 -2.2 8.6 -4.3 16.1 -4.7 16.5 -0.5 0.5 -4.4 -4.2 -8.7 -10.3z"/>
 </g>
 <g fill="#feac44">
  <path d="M141 215.4 c0 -3.9 0.9 -3.8 4 0.6 l2.1 3 -3 0 c-2.9 0 -3.1 -0.3 -3.1 -3.6z"/>
  <path d="M58 208.5 c0 -3.3 0.2 -3.5 3.2 -3.5 2.5 0 2.9 0.3 2 1.2 -1.6 1.6 -1.5 2.8 0.3 2.8 0.8 0 1.5 0.7 1.5 1.5 0 1 -1.1 1.5 -3.5 1.5 -3.3 0 -3.5 -0.2 -3.5 -3.5z"/>
  <path d="M67 210.6 c0 -0.7 1 -1.6 2.3 -2 4.1 -1.1 5.7 -0.7 5.7 1.4 0 1.7 -0.7 2 -4 2 -2.7 0 -4 -0.4 -4 -1.4z"/>
  <path d="M78 209.6 c0 -1.4 2.9 -2.6 6.8 -2.6 1.5 0 2.2 0.6 2.2 2 0 1.7 -0.7 2 -4.5 2 -3.2 0 -4.5 -0.4 -4.5 -1.4z"/>
  <path d="M34 190.1 c0 -17 0.2 -20 1.6 -21.2 1.8 -1.5 2.4 -1.8 14.2 -7.9 4.8 -2.5 8.9 -4.8 9.2 -5.2 0.3 -0.4 2.6 -1.6 5 -2.7 2.5 -1.2 5.9 -3 7.5 -4.1 6.1 -4 6.8 -4.3 5.9 -2.8 -0.6 1 2.5 -1.1 4.6 -3.2 0.3 -0.3 1.1 -0.6 1.9 -0.8 0.8 -0.2 2.6 -1.1 4 -2.1 1.4 -1 4.3 -2.4 6.3 -3.1 2 -0.8 3.5 -1.7 3.2 -2.2 -0.3 -0.4 0.2 -0.8 1.1 -0.8 0.9 0 1.3 -0.4 1 -1 -0.3 -0.5 -0.3 -1 0.2 -1 0.9 0 7.3 14 7.3 15.9 0 1.1 -41.7 56.1 -42.6 56.1 -0.2 0 -0.4 -1.6 -0.4 -3.5 0 -2.4 0.5 -3.5 1.5 -3.5 0.8 0 1.5 -0.4 1.5 -1 0 -0.5 -0.3 -1 -0.7 -1 -1 0 -17.6 8.2 -18.3 9 -0.3 0.3 -2.1 1.2 -4 2 -1.9 0.8 -3.9 2 -4.3 2.7 -0.4 0.7 -1.9 1.3 -3.2 1.3 l-2.5 0 0 -19.9z"/>
  <path d="M90 208.6 c0 -0.7 1 -1.6 2.3 -2 4.1 -1.1 5.7 -0.7 5.7 1.4 0 1.7 -0.7 2 -4 2 -2.7 0 -4 -0.4 -4 -1.4z"/>
  <path d="M103 207.6 c0 -1.3 2.8 -2.6 5.8 -2.6 0.6 0 1.2 0.9 1.2 2 0 1.6 -0.7 2 -3.5 2 -2.3 0 -3.5 -0.5 -3.5 -1.4z"/>
  <path d="M229.3 146.7 c-2.9 -1.7 -5.3 -3.5 -5.3 -3.9 0 -0.5 1.6 -0.8 3.5 -0.8 2.4 0 3.5 0.5 3.5 1.5 0 0.9 0.9 1.5 2.5 1.5 2 0 2.5 0.5 2.5 2.5 0 3.2 -0.4 3.1 -6.7 -0.8z"/>
  <path d="M211.3 135.7 c-5 -3 -5.3 -3.4 -5.3 -7.2 0 -5.5 1 -8.5 2.6 -8.5 1 0 1.4 1.5 1.4 5.5 0 4.2 0.3 5.5 1.5 5.5 0.8 0 1.5 0.7 1.5 1.5 0 0.9 0.9 1.5 2.5 1.5 2 0 2.5 0.5 2.5 2.5 0 3.2 -0.4 3.1 -6.7 -0.8z"/>
  <path d="M207 108.2 c0 -3.8 0.3 -13 0.7 -20.5 l0.6 -13.5 9.6 -5 9.6 -5 3.5 1.9 c3.2 1.6 6.2 1.8 31.3 1.9 l27.7 0 0 2.4 c0 1.8 -0.8 2.7 -3 3.5 -1.7 0.6 -4.3 1.9 -5.7 3.1 -1.4 1.1 -3.4 2 -4.4 2 -1.1 0 -1.9 0.4 -1.9 0.9 0 0.5 -2.4 1.9 -5.2 3.1 -2.9 1.2 -5.5 2.5 -5.8 2.9 -0.3 0.3 -2.3 1.5 -4.5 2.6 -2.2 1.1 -4.2 2.2 -4.5 2.5 -0.3 0.3 -3 1.8 -6 3.4 -3 1.6 -6.6 3.8 -7.9 4.8 -1.3 1 -3.2 1.8 -4.2 1.8 -0.9 0 -1.9 0.3 -2.1 0.8 -0.1 0.4 -2.8 2 -5.8 3.5 -11.9 6.1 -15 7.9 -15 8.8 0 0.5 -1.6 0.9 -3.5 0.9 l-3.5 0 0 -6.8z"/>
 </g>
 <g fill="#febc63">
  <path d="M34 228 c0 -22.2 0 -22.1 7 -25 1.9 -0.8 3.7 -1.7 4 -2 0.3 -0.3 4.2 -2.4 8.7 -4.5 4.7 -2.3 8.2 -4.6 8.3 -5.5 0 -1.2 0.2 -1.2 0.9 -0.2 0.6 1 1 1 2.1 -0.3 0.7 -0.8 1.8 -1.5 2.6 -1.5 0.7 0 1.9 -0.6 2.6 -1.3 1.5 -1.4 7.4 -5 10.1 -6 0.9 -0.3 -3 5.6 -8.8 13.3 l-10.6 14 3.3 0 c1.8 0 15.9 -1.1 31.3 -2.5 33.3 -3 30.5 -2.9 30.5 -0.6 0 1.5 -1.1 1.9 -7.3 2.4 -7.5 0.5 -15.7 2.5 -15.7 3.7 0 0.3 -3.1 1.9 -7 3.6 -3.8 1.6 -7 3.4 -7 4 0 0.5 -1.7 1.7 -3.7 2.5 -2 0.8 -4.6 1.9 -5.7 2.6 -1.2 0.7 -3.1 1.7 -4.3 2.2 -1.1 0.5 -2.4 1.5 -2.8 2 -0.3 0.6 -1.5 1.1 -2.6 1.1 -1 0 -1.9 0.5 -1.9 1 0 0.6 -0.9 1 -1.9 1 -1.1 0 -2.3 0.4 -2.6 1 -0.3 0.5 -3.5 2.4 -7 4.2 -3.6 1.7 -6.5 3.5 -6.5 4 0 0.4 -0.7 0.8 -1.6 0.8 -0.9 0 -3.9 1.4 -6.6 3 -8.1 5 -7.8 5.7 -7.8 -17z"/>
  <path d="M143 218.5 c0 -3.1 -0.3 -3.5 -2.5 -3.5 -1.6 0 -2.5 -0.6 -2.5 -1.5 0 -0.8 -0.4 -1.5 -1 -1.5 -0.5 0 -1 -0.5 -1 -1.1 0 -2 -2.9 -3.9 -5.9 -3.9 -4.4 0 -4.1 -2.7 0.4 -3.6 1.9 -0.3 4.1 -0.4 4.7 -0.1 0.7 0.3 4.1 4.6 7.5 9.6 l6.3 9.1 -3 0 c-2.8 0 -3 -0.3 -3 -3.5z"/>
  <path d="M225.5 144.2 l-19 -11.7 0.1 -4 c0.1 -2.2 0.2 -7.4 0.3 -11.5 0.1 -4.5 0.5 -7 1 -6.2 1 1.7 2.1 1.7 3.1 0.2 0.7 -1.1 7.6 -5.1 16 -9.3 2.5 -1.2 5.1 -2.8 5.8 -3.5 0.8 -0.7 1.8 -1 2.3 -0.7 0.5 0.4 0.9 0.1 0.9 -0.5 0 -0.6 0.4 -0.9 0.9 -0.5 0.5 0.3 1.6 -0.3 2.3 -1.2 0.7 -1 2 -1.9 2.8 -2.1 0.8 -0.2 1.8 -0.9 2.2 -1.5 0.4 -0.7 0.8 -0.8 0.8 -0.4 0 0.7 5.7 -2 7 -3.3 0.3 -0.3 2.3 -1.4 4.5 -2.5 2.2 -1.1 4.2 -2.3 4.5 -2.6 0.3 -0.4 2.9 -1.7 5.8 -2.9 2.8 -1.2 5.2 -2.6 5.2 -3.1 0 -0.5 0.9 -0.9 2 -0.9 1.1 0 2 -0.4 2 -1 0 -0.5 0.3 -0.9 0.8 -0.8 0.4 0.1 2 -0.6 3.6 -1.7 1.6 -1.1 3.6 -2 4.5 -2.2 0.9 -0.1 1.7 -0.7 1.9 -1.2 0.3 -0.8 12.1 -1.1 36.8 -1.1 32.4 0 36.4 0.2 36.4 1.6 0 2.2 -2.5 4.4 -4.9 4.4 -1.1 0 -2.4 0.6 -2.8 1.3 -0.4 0.6 -4.8 3.2 -9.8 5.7 -4.9 2.5 -9.2 4.8 -9.5 5.2 -0.3 0.4 -3 1.9 -6 3.3 -8.1 3.9 -13.9 7.3 -15.6 9 -0.9 0.8 -2.2 1.5 -2.9 1.5 -1.4 0 -9.8 4.3 -12.3 6.3 -2 1.6 -10.4 5.7 -11.6 5.7 -0.7 0 -1.9 0.9 -2.9 2 -0.9 1.1 -2.6 2 -3.7 2 -1.1 0 -2 0.4 -2 0.8 0 0.5 -3 2.4 -6.6 4.3 -3.6 1.9 -7.5 3.8 -8.5 4.4 -1 0.5 -1.9 1.3 -1.9 1.7 0 0.5 -0.5 0.8 -1 0.8 -2 0 -19.1 9 -22.1 11.6 -0.8 0.8 -2.3 1.4 -3.2 1.4 -0.9 0 -1.7 0.5 -1.7 1 0 0.6 0.5 1 1 1 0.6 0 1 0.7 1 1.5 0 0.9 0.9 1.5 2.5 1.5 1.4 0 2.5 0.5 2.5 1 0 0.6 0.7 1 1.5 1 0.8 0 1.5 0.7 1.5 1.5 0 0.9 0.9 1.5 2.5 1.5 2 0 2.5 0.5 2.5 2.5 0 1.4 -0.3 2.5 -0.7 2.5 -0.5 0 -9.3 -5.3 -19.8 -11.8z"/>
  <path d="M401.8 76.1 c-0.7 -1 -2.3 -2.1 -3.5 -2.5 -2.7 -0.9 -3.2 -4.6 -0.7 -4.6 2.4 0 8 3.7 9.8 6.5 1.6 2.5 1.6 2.5 -1.3 2.5 -1.8 0 -3.5 -0.8 -4.3 -1.9z"/>
 </g>
 <g fill="#fecb80">
  <path d="M34.2 264.8 l0.3 -20.2 5.4 -3.2 c3 -1.8 5.8 -3.1 6.3 -2.8 0.4 0.3 0.8 0.1 0.8 -0.3 0 -0.5 2.9 -2.4 6.5 -4.1 3.5 -1.8 6.7 -3.7 7 -4.2 0.3 -0.6 1.4 -1 2.5 -1 1 0 2.1 -0.7 2.4 -1.6 0.3 -0.8 1.1 -1.2 1.7 -0.9 0.6 0.4 2.1 -0.3 3.5 -1.6 1.3 -1.2 2.4 -1.9 2.4 -1.4 0 0.4 0.8 0.1 1.7 -0.8 1 -0.8 3.1 -1.9 4.6 -2.3 1.6 -0.3 3.1 -1.2 3.4 -2 0.2 -0.7 1.2 -1 2 -0.7 1 0.4 1.4 0.2 1 -0.5 -0.7 -1 8.5 -6 12.3 -6.8 0.8 -0.2 1.6 -0.8 1.8 -1.3 0.2 -0.6 1 -1.1 1.8 -1.1 0.8 0 1.4 -0.4 1.4 -0.9 0 -0.6 0.8 -0.9 1.8 -0.9 0.9 0 6.9 -0.5 13.2 -1.1 6.3 -0.6 12.9 -1.2 14.7 -1.4 2.9 -0.2 3.6 0.5 9.8 9.3 11.1 15.6 10.5 14.3 6.2 13.8 -2 -0.2 -3.7 -0.1 -3.7 0.2 0 0.3 -2.2 1.4 -5 2.5 -2.7 1.1 -5.2 2.5 -5.4 3.2 -0.3 0.7 -1.2 1.3 -2.1 1.3 -1.7 0 -14.2 6.5 -16.6 8.6 -0.8 0.8 -2.3 1.4 -3.2 1.4 -0.8 0 -2.2 0.6 -3 1.4 -0.8 0.8 -3 2.3 -5 3.3 -11.8 5.9 -21.3 10.9 -21.7 11.4 -1.3 1.4 -7.9 4.9 -9.3 4.9 -0.8 0 -1.7 0.7 -2.1 1.5 -0.3 0.8 -1.2 1.5 -2 1.5 -0.7 0 -4 1.6 -7.2 3.5 -3.3 1.8 -7.5 4.1 -9.4 5 -1.9 0.9 -3.7 1.9 -4 2.3 -0.3 0.5 -2.2 1.6 -4.2 2.5 -2 1 -4 2.2 -4.3 2.7 -0.3 0.6 -2 1 -3.6 1 l-2.9 0 0.2 -20.2z"/>
  <path d="M195.8 207.6 c-1.9 -1.4 -2.3 -4.2 -1 -6.3 0.6 -0.9 2.1 0 5.2 3.2 l4.4 4.5 -3.4 0 c-1.9 0 -4.3 -0.7 -5.2 -1.4z"/>
  <path d="M210 190.7 c0 -0.8 1.6 -1.8 3.5 -2.4 3.3 -1.1 3.5 -1 3.5 1.3 0 2.1 -0.5 2.4 -3.5 2.4 -2.2 0 -3.5 -0.5 -3.5 -1.3z"/>
  <path d="M224 186.7 c0 -1 1.7 -2.1 4.8 -2.9 4.4 -1.3 4.7 -1.3 5 0.5 0.5 2.5 0 2.9 -5.3 3.4 -3.6 0.5 -4.5 0.3 -4.5 -1z"/>
  <path d="M237 182.7 c0 -0.8 1.6 -1.8 3.5 -2.4 3.3 -1.1 3.5 -1 3.5 1.3 0 2.1 -0.5 2.4 -3.5 2.4 -2.2 0 -3.5 -0.5 -3.5 -1.3z"/>
  <path d="M241.8 154 c-16.5 -10.3 -20.7 -14 -15.9 -14 1 0 2.2 -0.7 2.5 -1.6 0.3 -0.8 1 -1.3 1.5 -0.9 0.5 0.3 3 -0.8 5.4 -2.5 2.5 -1.6 4.9 -3 5.4 -3 0.5 0 2 -1 3.3 -2.2 1.4 -1.3 2.7 -2.3 3 -2.2 1.3 0.3 5.9 -1.9 5.5 -2.6 -0.3 -0.5 0.3 -0.7 1.2 -0.6 1 0.2 2.6 -0.7 3.6 -1.8 1 -1.2 1.5 -1.5 1.1 -0.7 -0.4 0.8 0.8 0.3 2.7 -1.1 1.9 -1.5 3.6 -2.6 3.9 -2.6 1.2 0.1 8 -3.7 8 -4.4 0 -0.4 0.9 -0.8 2 -0.8 1.1 0 2.8 -0.9 3.7 -2 1 -1.1 2.3 -2 3 -2 1.5 0 4.9 -1.8 7.6 -3.9 0.9 -0.8 1.7 -1 1.7 -0.6 0 0.4 0.8 0.1 1.8 -0.7 2.6 -2.3 11.1 -6.8 12.7 -6.8 0.8 0 1.5 -0.5 1.5 -1.2 0 -0.6 0.3 -0.9 0.6 -0.5 0.3 0.3 1.5 -0.3 2.7 -1.4 1.1 -1 2.7 -1.9 3.4 -1.9 0.7 0 1.3 -0.5 1.3 -1.1 0 -0.5 0.4 -0.8 0.9 -0.4 0.5 0.3 1.2 0.1 1.6 -0.4 0.3 -0.5 3.1 -2.1 6.2 -3.6 3.2 -1.4 6 -2.9 6.3 -3.3 0.3 -0.4 3.5 -2.3 7.2 -4.2 3.8 -1.9 6.8 -3.9 6.8 -4.4 0 -0.4 0.7 -0.6 1.5 -0.2 0.8 0.3 1.5 0.1 1.5 -0.5 0 -0.6 0.4 -0.8 0.9 -0.5 0.5 0.3 1.1 -0.1 1.5 -0.9 0.3 -0.8 1.7 -1.5 3.1 -1.5 1.5 0 2.4 -0.4 2.1 -0.9 -1 -1.6 3.8 -2.1 22.4 -2.1 15.9 0 19.1 0.3 22.5 1.9 5.6 2.6 9.2 6.8 10.4 12.1 1.7 7.2 1.4 10 -0.9 10 -1.6 0 -2 -0.7 -2 -3.3 0 -1.9 -0.3 -3.7 -0.7 -4 -0.6 -0.6 -9.2 3.7 -19.3 9.7 -2.5 1.5 -5.3 2.9 -6.2 3.3 -1 0.3 -1.8 0.9 -1.8 1.4 0 0.5 -1.1 0.9 -2.5 0.9 -1.4 0 -3 0.9 -3.7 2 -0.7 1.1 -1.8 2 -2.4 2 -1.4 0 -15.9 7.5 -17.4 9 -0.3 0.3 -3 1.6 -6 3 -3 1.4 -5.7 2.7 -6 3 -1.3 1.3 -20.3 11.7 -22.7 12.5 -1.3 0.3 -2.3 1.1 -2.3 1.6 0 0.5 -0.9 0.9 -2 0.9 -1.1 0 -2 0.4 -2 0.9 0 0.5 -0.8 1.1 -1.7 1.5 -1 0.3 -3.6 1.7 -5.8 3 -7 4.2 -19.8 10.6 -21.1 10.6 -0.7 0 -1.7 0.6 -2.1 1.3 -1.2 1.9 -6 4.7 -8 4.7 -1 0 -3 1.1 -4.4 2.4 -1.4 1.3 -4 2.7 -5.7 3 -1.7 0.4 -3.2 1.4 -3.4 2.2 -0.2 1 -5.5 -1.8 -18 -9.6z"/>
 </g>
 <g fill="#e1d0a6">
  <path d="M298.9 283.9 c-50.8 -45.7 -94.1 -84.7 -96.2 -86.8 l-3.9 -3.8 5.9 -2.1 c7.3 -2.6 19.1 -6.1 22.2 -6.7 1.3 -0.2 4.2 -1.1 6.5 -1.9 3.8 -1.3 9.4 -3 28.4 -8.6 3.9 -1.2 7.2 -2.5 7.2 -2.8 0 -0.4 -2.7 -2.3 -6 -4.1 -3.3 -1.9 -6 -3.9 -6 -4.4 0 -0.4 -0.4 -0.5 -1 -0.2 -1.5 0.9 -1.2 -1.1 0.4 -2.4 1.4 -1.2 4.6 -0.5 4.6 0.9 0 0.4 1.1 1.1 2.5 1.4 1.4 0.4 2.5 1.1 2.5 1.6 0 0.6 0.7 1 1.5 1 0.8 0 1.5 0.7 1.5 1.5 0 0.8 0.9 1.5 2 1.5 1.6 0 2 0.7 2 3.5 0 1.9 -0.1 3.5 -0.3 3.5 -0.1 0 -6.3 1.8 -13.7 4 -7.4 2.2 -14.7 4 -16.2 4 -1.4 0 -2.8 0.5 -3 1.1 -0.2 0.5 -2.4 1.3 -4.8 1.6 -2.5 0.3 -4.7 0.9 -5 1.3 -0.7 1.1 -11.4 4 -14.4 4 -1.4 0 -2.6 0.4 -2.6 0.8 0 0.5 -1.1 1.2 -2.5 1.8 -2.4 0.9 -1.8 1.5 13.9 15.8 9.1 8.1 18.2 16.2 20.2 18 2.1 1.7 5 4.2 6.4 5.6 1.5 1.4 4.4 4.1 6.6 6 2.1 2 9.1 8.3 15.4 14 6.4 5.8 13.4 12.1 15.6 14 3.5 3 19.6 17.5 22.8 20.5 5.5 5.2 51.4 46.4 53.2 47.8 2.3 1.8 2.4 1.8 2.4 -0.1 0 -1.9 0.8 -2 14.3 -2.4 11.5 -0.2 14.8 -0.6 17 -2 1.4 -1 3.3 -1.8 4.2 -1.8 0.8 0 1.5 -0.9 1.5 -2 0 -1.1 0.4 -2 0.9 -2 0.5 0 1.2 -2 1.5 -4.5 0.6 -3.6 1.1 -4.5 2.7 -4.5 3.5 0 1.5 9.1 -3.2 14.5 -4.3 4.8 -10.5 6.5 -24.3 6.5 l-11.1 0.1 4.5 3.9 c3.4 3 4 3.9 2.6 4 -1.9 0 -1.9 0 0 2.1 1.5 1.7 1.9 1.8 2.4 0.5 0.4 -1.3 1 -1.2 3.5 0.9 2.2 1.8 2.7 2.7 1.8 3.3 -0.9 0.6 0.3 2.3 4.2 5.9 5.6 5.3 7.2 9.3 3.7 9.3 -1.1 0 -42.8 -36.8 -94.3 -83.1z"/>
  <path d="M46.5 335.8 c-6.8 -2.4 -10.6 -7.1 -12.1 -14.7 -0.6 -2.6 -0.3 -3.1 1.3 -3.1 1.4 0 2.3 1.1 3.2 4 1.6 5.2 5.2 8.7 10.4 10 2.7 0.7 24 1 60.1 0.8 l55.8 -0.3 -16.1 -7.4 -16.2 -7.4 -22.2 0.7 c-12.2 0.3 -28.6 0.9 -36.4 1.2 l-14.3 0.6 0 -3.5 0 -3.5 19.9 -8.2 20 -8.3 -10.4 -8.1 c-9.4 -7.3 -10.4 -8.4 -10.5 -11.3 l0 -3.3 6.3 0 c3.4 0 14.8 0.9 25.2 2 10.5 1.1 23.8 2.5 29.6 3.1 l10.7 1.1 26 -7.1 c14.3 -3.9 27.9 -7.1 30.2 -7.1 l4.2 0 -0.6 8.8 c-0.4 4.8 -0.9 10.1 -1.2 11.8 l-0.6 3.1 18.9 3.6 c10.3 2 24.1 4.6 30.6 5.9 l11.7 2.2 0 3.2 c0 3.8 1.5 3.4 -27.8 6 -10.6 1 -18.7 2.1 -18 2.5 0.7 0.3 11.4 3.5 23.8 6.9 12.4 3.4 27.9 7.7 34.5 9.6 11.2 3.2 12.9 3.4 26.9 3.4 l15.1 0 -8.9 -8.9 c-7.5 -7.6 -8.7 -9.2 -8.4 -11.7 0.3 -2.8 0.8 -2.4 14.3 10.8 l14 13.8 -143 -0.1 c-98.3 0 -143.9 -0.4 -146 -1.1z m174.1 -10.4 c-13.1 -4.1 -24 -7.3 -24 -7.2 -0.3 0.5 -5.1 7.2 -8 11.1 l-2.8 3.7 29.3 -0.1 29.4 0 -23.9 -7.5z"/>
  <path d="M276.7 286.2 c-11.4 -11.4 -12.8 -13.2 -12.5 -15.8 0.3 -2.8 0.9 -2.3 16.3 12.8 15.9 15.6 16 15.8 12.5 15.8 -3.1 0 -4.8 -1.3 -16.3 -12.8z"/>
  <path d="M175 267.5 c0 -0.8 -0.4 -1.5 -1 -1.5 -0.5 0 -1 -0.7 -1 -1.5 0 -0.8 -0.4 -1.5 -1 -1.5 -0.5 0 -1 -0.7 -1 -1.5 0 -0.8 -0.4 -1.5 -0.8 -1.5 -1.1 0 -10.2 -13.3 -10.2 -14.8 0 -0.7 -0.4 -1.2 -1 -1.2 -0.5 0 -1 -0.7 -1 -1.5 0 -0.8 -0.4 -1.5 -1 -1.5 -0.5 0 -1 -1.6 -1 -3.6 0 -5 0.8 -4.2 12.6 13.1 5.4 8 10.1 14.5 10.4 14.5 0.3 0 1.3 -3 2.2 -6.7 8.9 -37.8 10.1 -42.3 11.4 -42.3 2.6 0 1.6 5.8 -7.2 42.3 l-2.6 10.7 -3.9 0 c-2.8 0 -3.9 -0.4 -3.9 -1.5z"/>
  <path d="M234.7 245.2 c-10.5 -10.4 -11.8 -12.2 -11.5 -14.8 0.3 -2.8 0.9 -2.4 15.3 11.8 14.9 14.7 15 14.8 11.5 14.8 -3.1 0 -4.7 -1.3 -15.3 -11.8z"/>
  <path d="M149 229.5 c0 -0.8 -0.4 -1.5 -1 -1.5 -0.5 0 -1 -0.7 -1 -1.5 0 -0.8 -0.4 -1.5 -1 -1.5 -1.9 0 -1 -2.8 1 -3.3 1.3 -0.3 2 0 2 0.8 0 0.7 0.4 1.5 0.8 1.7 0.4 0.2 1.8 1.8 3.1 3.6 l2.2 3.2 -3 0 c-2.1 0 -3.1 -0.5 -3.1 -1.5z"/>
  <path d="M192 213.7 c0 -0.8 0.6 -3.4 1.3 -5.8 1.6 -5.4 1.7 -5.6 1.7 -7.1 0 -0.7 0.7 -0.3 1.5 0.9 2.1 3 0.1 13.3 -2.6 13.3 -1.1 0 -1.9 -0.6 -1.9 -1.3z"/>
  <path d="M407 86.5 c0 -3.3 0.4 -4.5 1.5 -4.5 0.8 0 1.6 0.6 1.6 1.3 0.8 6.9 0.7 7.7 -1.2 7.7 -1.6 0 -1.9 -0.7 -1.9 -4.5z"/>
 </g>
 <g fill="#feda9b">
  <path d="M34 299 c0 -12.5 0.3 -17 1.2 -17 0.7 0 2.5 -1.2 4.1 -2.7 1.7 -1.6 2.6 -2.1 2.2 -1.3 -0.6 1.1 -0.3 1 1.2 -0.3 1.1 -0.9 2.3 -1.4 2.6 -1 0.4 0.3 0.7 0.2 0.7 -0.4 0 -0.6 1.5 -1.7 3.3 -2.4 3.1 -1.3 8.9 -4.8 11.5 -6.9 0.6 -0.6 1.2 -0.8 1.2 -0.5 0 0.4 1.4 -0.4 3.2 -1.6 1.8 -1.4 2.8 -1.7 2.4 -0.8 -0.5 0.9 -0.3 0.9 0.6 -0.2 0.7 -0.9 2.4 -1.9 3.8 -2.2 1.4 -0.3 3.5 -1.6 4.8 -2.7 1.2 -1.1 2.2 -1.7 2.2 -1.3 0 0.4 0.4 0.4 0.8 -0.2 0.4 -0.5 2.8 -2.1 5.5 -3.4 2.6 -1.3 4.7 -2.8 4.7 -3.3 0 -0.5 0.4 -0.7 0.9 -0.3 0.5 0.3 2.5 -0.4 4.3 -1.5 1.8 -1.1 4.1 -2.3 5.1 -2.6 0.9 -0.4 1.7 -1.1 1.7 -1.6 0 -0.5 0.4 -0.6 1 -0.3 0.5 0.3 1 0.1 1 -0.5 0 -0.6 0.4 -0.8 1 -0.5 0.5 0.3 1 0.2 1 -0.4 0 -0.8 3 -2.4 5 -2.6 0.3 0 1.9 -1 3.7 -2.3 1.7 -1.2 3.5 -2.2 4.1 -2.2 0.5 0 1.5 -0.7 2.2 -1.5 0.7 -0.9 1.5 -1.3 1.8 -1.1 0.3 0.3 1.7 -0.3 3.1 -1.3 1.4 -1 3.1 -1.6 3.8 -1.4 0.6 0.2 1.7 -0.5 2.3 -1.7 0.6 -1.2 1.4 -1.9 1.7 -1.6 0.3 0.3 1.8 -0.1 3.4 -1 1.6 -0.8 3.2 -1.4 3.5 -1.3 0.4 0 1.1 -0.6 1.6 -1.5 1.4 -2.6 6 -1.9 8.3 1.2 6.3 8.6 13.5 19.8 13.5 20.9 0 0.7 -0.9 1.3 -2 1.3 -1.1 0 -2 0.4 -2 1 0 0.5 -3.7 2.8 -8.2 5.1 -4.6 2.3 -10.4 5.2 -12.9 6.5 -2.5 1.3 -5.2 3 -5.9 3.9 -0.7 0.8 -1.8 1.5 -2.4 1.5 -1.4 0 -8.7 3.7 -9.5 4.8 -0.3 0.4 -2.4 1.6 -4.7 2.6 -2.3 1 -5.3 2.9 -6.8 4.3 -2.6 2.4 -2.8 2.4 -11.4 1.4 -4.8 -0.6 -10.4 -1.1 -12.6 -1.1 l-3.9 0 7.9 6.3 7.8 6.2 -3.4 0.3 c-1.9 0.2 -3.6 -0.1 -3.8 -0.7 -0.2 -0.6 -1 -1.1 -1.8 -1.1 -1.3 0 -5.3 1.9 -6.4 3 -0.3 0.3 -4.4 2.5 -9.2 4.9 -4.9 2.4 -8.8 4.7 -8.8 5.1 0 0.4 -1.8 1.3 -4 2 -2.2 0.7 -4.5 1.9 -5.1 2.7 -0.6 0.7 -4.5 2.9 -8.5 4.9 -4.1 2 -7.6 4 -8 4.5 -0.3 0.5 -1.4 0.9 -2.5 0.9 -1.8 0 -1.9 -0.8 -1.9 -17z"/>
  <path d="M188 232.1 c0 -1.4 2.7 -13.1 5.2 -22.8 l2.1 -8.2 5.6 4.8 c3.1 2.7 7.8 7.2 10.6 10 l4.9 5.1 -2.9 0 c-1.7 0 -4.1 0.7 -5.5 1.5 -1.4 0.8 -5.5 2.9 -9.2 4.7 -3.8 1.7 -6.8 3.8 -6.8 4.5 0 0.7 -0.9 1.3 -2 1.3 -1.1 0 -2 -0.4 -2 -0.9z"/>
  <path d="M212 203 c-5.2 -4.4 -9.6 -8.7 -9.8 -9.5 -0.3 -1.5 0.2 -1.7 43.2 -14.4 13.2 -3.9 24.1 -7.3 24.3 -7.5 0.2 -0.2 -3 -2.5 -7.1 -5.2 -8.1 -5.1 -8.5 -6.6 -2.4 -8 1.7 -0.3 4.3 -1.7 5.7 -3 1.4 -1.3 3.5 -2.4 4.7 -2.4 1.1 0 3 -0.9 4.2 -2 1.2 -1.2 2.2 -1.7 2.2 -1.3 0 0.4 0.5 0 1 -0.9 0.6 -0.9 2.4 -1.9 4 -2.3 1.7 -0.4 3 -1.1 3 -1.6 0 -0.6 0.4 -0.8 0.9 -0.5 0.4 0.3 2.9 -0.8 5.5 -2.4 2.5 -1.6 4.6 -2.7 4.6 -2.4 0 0.3 1.5 -0.6 3.3 -2 1.9 -1.4 3.6 -2.4 3.9 -2.1 0.3 0.3 1.1 -0.1 1.8 -1 0.7 -0.8 1.9 -1.5 2.6 -1.5 0.8 0 1.4 -0.4 1.4 -1 0 -0.5 0.9 -1 2 -1 1.1 0 2 -0.4 2 -0.9 0 -0.5 1 -1.3 2.3 -1.6 2.4 -0.8 21.4 -11.2 22.7 -12.5 1 -1 10.5 -5.4 11.3 -5.2 0.4 0.1 0.7 -0.3 0.7 -0.8 0 -0.6 0.6 -1 1.4 -1 0.7 0 2.5 -1.1 4 -2.5 1.4 -1.3 2.6 -2.1 2.6 -1.8 0 0.3 0.7 0 1.5 -0.7 0.8 -0.7 1.5 -0.9 1.5 -0.5 0 0.3 1.5 -0.3 3.3 -1.4 1.9 -1.1 3.8 -1.7 4.2 -1.3 0.5 0.4 0.5 0.2 0.2 -0.4 -0.7 -1.2 5.2 -4.6 6.5 -3.8 0.4 0.3 0.8 0.1 0.8 -0.4 0 -0.5 0.8 -1.2 1.8 -1.5 0.9 -0.4 3.5 -1.7 5.7 -3 2.2 -1.3 6.7 -3.9 10 -5.7 3.3 -1.8 7.9 -4.3 10.3 -5.6 l4.3 -2.4 1 2.8 c1.3 3.3 2.5 25.9 1.5 29.6 -0.3 1.4 -1.3 2.6 -2.2 2.6 -0.9 0 -2.9 0.9 -4.4 2 -1.6 1.1 -4.4 2.7 -6.2 3.5 -1.8 0.8 -5.1 2.6 -7.3 4 -2.2 1.4 -5.1 3 -6.5 3.7 -1.4 0.7 -2.7 1.5 -3 1.8 -0.3 0.4 -2.1 1.2 -4 2 -1.9 0.7 -4.8 2.3 -6.5 3.4 -1.6 1.1 -6.9 4.1 -11.8 6.6 -13.2 6.7 -14.2 7.2 -14.5 8.2 -0.2 0.4 -1.2 0.8 -2.2 0.8 -1.1 0 -3 1.1 -4.4 2.5 -1.4 1.4 -3 2.5 -3.5 2.5 -1 0 -12.6 6 -20.6 10.6 -2.2 1.3 -7 3.7 -10.7 5.5 -3.8 1.7 -6.8 3.5 -6.8 3.9 0 0.4 -1 1 -2.3 1.4 -1.3 0.3 -4.1 1.7 -6.3 3.2 -2.1 1.5 -8.4 5 -13.9 7.9 -15 7.8 -21.8 11.6 -23.5 13 -0.8 0.7 -2.7 1.6 -4.2 2 -1.5 0.4 -3.2 1.3 -3.9 2.1 -0.6 0.8 -1.9 1.4 -2.9 1.4 -1 0 -2.3 0.7 -3 1.5 -0.7 0.8 -1.8 1.5 -2.5 1.5 -0.8 0 -1.5 0.5 -1.7 1.1 -0.2 0.6 -2.6 1.4 -5.3 1.6 l-5 0.5 -9.5 -8.2z"/>
 </g>
 <g fill="#fee3ad">
  <path d="M40.7 332.1 c-5.8 -5.1 -8.7 -17.1 -4.9 -20.2 0.9 -0.8 3.8 -2.5 6.4 -3.8 2.6 -1.2 5 -2.6 5.3 -3.2 0.4 -0.5 1 -0.7 1.5 -0.4 0.4 0.3 1.4 -0.2 2.1 -1.1 1.3 -1.6 7.8 -4.8 9.2 -4.6 0.4 0.1 0.7 -0.2 0.7 -0.7 0 -0.4 3.9 -2.8 8.8 -5.2 4.8 -2.4 8.9 -4.6 9.2 -4.9 0.3 -0.3 2.4 -1.5 4.8 -2.8 l4.2 -2.3 3.3 2.2 c5.2 3.6 16.6 12.3 16.4 12.5 -0.1 0.1 -9.6 4.1 -21.2 8.9 -11.6 4.8 -21.7 9.1 -22.5 9.6 -0.9 0.6 2.6 0.7 9.3 0.3 10.5 -0.7 10.7 -0.6 10.7 1.5 0 1.9 -0.5 2.1 -5.9 2.1 -3.3 0 -6.1 0.4 -6.3 0.8 -0.5 1.3 -14.4 9.2 -16.2 9.2 -0.8 0 -2.1 0.9 -2.8 1.9 -0.8 1.1 -3 2.2 -5 2.6 -3 0.6 -4 0.2 -7.1 -2.4z"/>
  <path d="M407 318.5 c0 -2.8 0.4 -3.5 2 -3.5 2.1 0 2.4 1 1.4 4.8 -1 3.6 -3.4 2.7 -3.4 -1.3z"/>
  <path d="M138 282.3 c-1.9 -0.2 -11 -1.2 -20.2 -2.3 -9.2 -1.1 -17 -2 -17.4 -2 -0.4 0 0.1 -0.9 1.1 -2 1 -1.1 2.4 -2 3.1 -2 1.4 0 7.7 -3.8 10.7 -6.4 1.2 -1.1 1.7 -1.2 1.7 -0.3 0 0.9 0.2 0.9 0.8 -0.1 0.9 -1.4 8 -5.2 9.8 -5.2 0.6 0 1.7 -0.7 2.4 -1.5 0.7 -0.9 3.4 -2.6 5.9 -3.9 2.5 -1.3 8.3 -4.2 12.8 -6.4 4.4 -2.3 8.3 -4.5 8.5 -5 0.1 -0.5 1.5 -1.2 2.9 -1.5 2.5 -0.6 3.2 0.1 10.5 10.8 4.4 6.3 8.2 11.4 8.6 11.5 0.3 0 2 -6 3.7 -13.2 5.9 -25.1 6 -25.4 8.9 -26.8 1.5 -0.8 3.2 -1.4 3.7 -1.5 0.6 -0.2 2.6 -1.2 4.5 -2.4 1.9 -1.1 4.6 -2.6 6 -3.2 1.3 -0.5 2.8 -1.5 3.1 -2.1 1 -1.5 4.9 1.5 14.4 11.1 6.4 6.5 7.5 8.1 5.8 8.1 -1.2 0 -2.8 0.6 -3.5 1.3 -0.7 0.7 -4.2 2.7 -7.8 4.5 -6.7 3.3 -14.1 7.3 -15 8.2 -1.2 1.2 -5.1 3 -6.5 3 -0.8 0 -1.5 0.4 -1.5 0.9 0 0.5 -1.5 1.4 -3.2 2.1 -4.8 1.9 -6.7 3.9 -7.4 7.6 -0.6 3 -1 3.4 -3.9 3.4 -1.8 0 -3.5 -0.6 -3.8 -1.2 -0.2 -0.9 -2.3 -0.3 -7 2 -3.7 1.9 -6.7 3.8 -6.7 4.2 0 0.5 -1.3 1.1 -2.9 1.5 -1.6 0.3 -4.1 1.7 -5.6 3.1 -1.4 1.3 -3.1 2.4 -3.8 2.4 -0.7 0 -2.7 0.9 -4.5 2 -1.8 1.1 -3.6 1.9 -4 1.8 -0.4 0 -2.3 -0.3 -4.2 -0.5z"/>
  <path d="M228.9 218 c-5.2 -4.5 -9.5 -9 -9.7 -10 -0.2 -1.3 -1.1 -2 -2.6 -2 -2.8 0 -4.6 -1.8 -4.6 -4.7 0 -1.9 -0.5 -2.3 -3 -2.3 -3.3 0 -4.4 -1.5 -3.8 -5 0.3 -1.9 1.5 -1.1 9.7 5.9 5.2 4.5 9.8 8.1 10.2 8.1 0.4 0 1.1 -0.5 1.4 -1 0.4 -0.6 1.1 -0.8 1.6 -0.5 0.5 0.4 0.9 0.1 0.9 -0.4 0 -0.6 0.6 -1.1 1.4 -1.1 0.7 0 1.9 -0.7 2.6 -1.5 0.7 -0.8 2 -1.5 3 -1.5 1 0 2.3 -0.6 2.9 -1.4 0.7 -0.8 2.4 -1.7 3.9 -2.1 1.5 -0.4 3.4 -1.3 4.2 -2 1.7 -1.4 8.5 -5.2 23.5 -13 5.5 -2.9 11.8 -6.4 13.9 -7.9 2.2 -1.5 5 -2.9 6.3 -3.2 1.3 -0.4 2.3 -1 2.3 -1.4 0 -0.4 3 -2.2 6.8 -3.9 3.7 -1.8 8.5 -4.2 10.7 -5.5 8.4 -4.9 21.5 -11.6 21.5 -11.1 0 0.3 1.1 -0.6 2.5 -2 2.4 -2.3 3.2 -2.7 5.1 -2.4 0.4 0 1 -0.3 1.3 -0.9 0.6 -0.9 3 -2.3 11.1 -6.3 2.5 -1.3 6.2 -3.3 8.3 -4.6 2 -1.3 3.7 -2.1 3.7 -1.7 0 0.3 1.2 -0.4 2.8 -1.6 2.5 -2 9.2 -5.3 10.1 -5 0.2 0.1 0.7 -0.2 1 -0.7 0.3 -0.5 1.7 -1.4 3.1 -2.1 1.4 -0.7 4.3 -2.3 6.5 -3.7 2.2 -1.4 5.5 -3.2 7.3 -4 1.8 -0.8 4.6 -2.3 6.1 -3.4 1.5 -1.1 3.4 -2.1 4.1 -2.3 0.8 -0.2 2.1 -0.9 2.8 -1.5 0.7 -0.7 1.8 -1.3 2.3 -1.3 0.5 0 0.9 6.2 0.9 14.5 0 13.9 -0.1 14.5 -2.2 15.6 -1.3 0.7 -2.9 1.8 -3.6 2.6 -0.7 0.7 -1.9 1.3 -2.5 1.3 -0.7 0 -2.8 1.1 -4.7 2.3 -1.9 1.3 -5 2.9 -6.9 3.5 -1.9 0.7 -4 2.1 -4.8 3.2 -0.8 1.1 -2 2 -2.8 2 -2 0 -13.5 6.1 -13.5 7.1 0 0.5 -0.7 0.9 -1.5 0.9 -0.8 0 -1.5 0.5 -1.5 1 0 0.6 -0.9 1 -2 1 -2.3 0 -6.1 1.9 -7.2 3.6 -0.4 0.6 -2.2 1.7 -4 2.4 -6.9 2.6 -8.8 3.5 -8.8 4 0 0.3 -1.7 1.4 -3.7 2.4 -10.2 4.9 -12.3 6.1 -12.7 7.3 -0.3 0.7 -1.2 1.3 -2 1.3 -1.6 0 -12.9 5.8 -17.6 9 -1.4 0.9 -4.2 2.4 -6.2 3.4 -2.1 0.9 -3.8 2.1 -3.8 2.6 0 0.4 -1.4 1.1 -3 1.5 -1.7 0.4 -3.6 1.2 -4.3 1.9 -0.6 0.6 -5 3.1 -9.7 5.5 -10.2 5.2 -16.3 8.4 -17 9.1 -0.3 0.3 -2.1 1.4 -4 2.4 -11.7 6.4 -14.6 7.6 -18.5 7.6 -3.7 0 -5.1 -0.8 -13.6 -8z"/>
 </g>
 <g fill="#feeec0">
  <path d="M303.4 283.9 c-34.6 -30.3 -64.1 -56.4 -65.6 -58 -1.5 -1.6 -3.1 -2.9 -3.6 -2.9 -1.2 0 -5.2 -4.4 -5.2 -5.8 0 -0.7 -0.8 -1.2 -1.8 -1.2 -2.3 0 -5.2 -3 -5.2 -5.3 0 -1.1 -0.8 -1.7 -2.3 -1.7 -1.3 0 -2.8 -0.5 -3.5 -1.2 -0.7 -0.7 -1.2 -2.2 -1.2 -3.5 0 -1.7 -0.6 -2.3 -2.1 -2.3 -3.4 0 -5.9 -1.9 -5.9 -4.5 0 -2 -0.5 -2.5 -2.4 -2.5 -3.1 0 -4.2 -1.6 -1.9 -2.8 1.5 -0.8 5.2 1.9 20.2 14.9 10.1 8.8 19.1 15.9 20.1 15.9 0.9 0 2.6 -0.9 3.7 -1.9 1.2 -1.1 2.3 -1.7 2.7 -1.4 0.3 0.3 2.7 -0.9 5.4 -2.6 2.7 -1.7 5.4 -3.1 5.9 -3.1 0.6 0 1.3 -0.7 1.7 -1.5 0.3 -0.8 0.9 -1.4 1.3 -1.4 1.4 0.3 4.7 -1.3 7.1 -3.5 1.3 -1.2 2.4 -1.9 2.5 -1.6 0.3 0.7 13.9 -6.2 16.1 -8.2 1 -0.9 2.3 -1.5 2.7 -1.2 0.4 0.2 1 0 1.4 -0.6 0.4 -0.6 1.1 -0.8 1.6 -0.5 0.5 0.4 0.9 0.2 0.9 -0.4 0 -0.6 1.7 -1.8 3.8 -2.8 2 -1 6.9 -3.7 10.9 -6 3.9 -2.4 7.5 -4.3 8 -4.3 0.5 0 1.9 -0.9 3.1 -2 1.3 -1.2 2.2 -1.6 2.2 -0.9 0 0.8 0.8 0.5 1.8 -0.7 1 -1 3.6 -2.8 5.8 -3.8 6.9 -3.3 9.9 -4.9 10.4 -5.5 1 -1.1 5.2 -3.3 7.3 -3.7 1.1 -0.2 2.4 -0.9 2.9 -1.6 0.4 -0.7 0.8 -0.8 0.8 -0.3 0 0.6 0.6 0.3 1.3 -0.5 1.4 -1.9 7.8 -5 8.8 -4.4 0.4 0.2 1 -0.3 1.3 -1.2 0.3 -0.8 1 -1.2 1.6 -0.9 0.5 0.3 1 0.2 1 -0.4 0 -0.5 2.5 -2.2 5.5 -3.7 3.1 -1.4 5.8 -3.1 6.1 -3.6 0.3 -0.5 1.2 -0.7 2 -0.4 0.7 0.3 2 -0.4 2.7 -1.4 0.8 -1.1 2.9 -2.5 4.8 -3.2 1.9 -0.6 5 -2.2 6.9 -3.5 1.9 -1.2 4 -2.3 4.7 -2.3 0.6 0 1.8 -0.6 2.5 -1.4 1.4 -1.3 7.2 -4.6 8.3 -4.6 0.3 0 0.5 41.3 0.5 91.8 0 65.9 -0.3 93.5 -1.2 97.7 -1.3 6.8 -5.6 11.8 -11.5 13.4 -2.1 0.6 -9.4 1.1 -16.2 1.1 -10.9 0 -12.2 0.2 -11.1 1.5 1.1 1.3 0.8 1.5 -1.7 1.5 -2.5 0 -13.1 -8.9 -65.9 -55.1z"/>
  <path d="M45.8 334.8 c-1.6 -0.5 -2.8 -1.3 -2.8 -1.6 0 -1.3 4.1 -3.3 5.3 -2.6 0.7 0.4 0.9 0.4 0.5 -0.1 -0.9 -0.9 2 -3.4 4 -3.5 1.4 0 15.3 -7.8 16.2 -9 0.7 -1 15 -1.9 42.7 -2.6 l24.2 -0.7 20.9 9.6 c11.5 5.4 21.4 9.7 22 9.7 0.6 0 4.4 -4.5 8.4 -10 4 -5.5 7.8 -10 8.3 -10 0.9 0 67.1 20.3 70 21.4 2.4 1 -217.1 0.4 -219.7 -0.6z"/>
  <path d="M267.5 329.3 c-12.6 -3.6 -32.2 -9.1 -43.5 -12.3 -23.7 -6.7 -24.9 -5.7 11 -9 12.4 -1.1 24.8 -2.3 27.5 -2.7 l5 -0.6 -11 -2.2 c-6 -1.2 -19.9 -3.9 -30.9 -6 l-19.8 -3.8 0.7 -9.6 c0.3 -5.3 0.9 -10.6 1.2 -11.8 0.3 -1.4 0.1 -2.3 -0.7 -2.3 -0.6 0 -13.4 3.3 -28.5 7.4 -26.3 7.2 -27.6 7.4 -33.7 6.6 -3.5 -0.5 -6.9 -1 -7.7 -1 -1.7 0 -0.9 -1.1 1.1 -1.4 1.5 -0.2 7 -3.6 7.9 -4.9 0.4 -0.5 1.2 -0.8 1.9 -0.5 0.7 0.2 2.4 -0.6 3.8 -1.9 1.4 -1.3 3.1 -2.3 3.8 -2.3 0.8 0 1.4 -0.5 1.4 -1.1 0 -0.6 0.7 -0.8 1.7 -0.5 1 0.4 1.4 0.4 1 0 -0.4 -0.4 2.8 -2.5 7 -4.6 l7.8 -3.8 2.2 2.5 c1.2 1.4 2.4 2.5 2.7 2.5 0.3 0 1 -1.9 1.7 -4.2 1.3 -5.1 3.1 -7.4 6.5 -8.2 1.3 -0.4 2.4 -1.1 2.4 -1.7 0 -0.6 0.5 -0.7 1 -0.4 0.6 0.3 1 0.1 1 -0.4 0 -0.6 0.7 -1.1 1.5 -1.1 1.4 0 5.3 -1.8 6.5 -3 0.7 -0.7 7.8 -4.6 14 -7.7 3 -1.6 5.7 -3.1 5.8 -3.6 0.2 -0.4 0.8 -0.5 1.3 -0.1 0.5 0.3 0.9 -0.3 0.9 -1.2 0 -1 0.3 -1.4 0.6 -1.1 0.4 0.3 1.5 0.2 2.6 -0.4 1.7 -0.9 3.3 0.3 11.6 8.3 16.1 15.6 52.4 51.1 75.2 73.5 l21.5 21.3 -21.5 -0.1 -21.5 0 -23 -6.6z"/>
 </g>
 <g fill="#ffffff">
  <path d="M386.9 361.1 c-3.5 -3.2 -11.2 -10.1 -17 -15.2 -9.6 -8.6 -58.9 -53 -61.5 -55.4 -3.2 -3 -19.3 -17.5 -22.8 -20.5 -2.2 -1.9 -9.2 -8.2 -15.6 -14 -6.3 -5.7 -13.3 -12 -15.4 -14 -2.2 -1.9 -5.1 -4.6 -6.6 -6 -1.5 -1.4 -5.8 -5.2 -9.6 -8.5 -3.8 -3.3 -11.8 -10.5 -17.9 -16 -6 -5.5 -13.1 -11.9 -15.7 -14.2 -4.6 -4.1 -4.7 -4.3 -2.3 -4.9 2 -0.5 12.2 8 75.2 63.2 74.4 65.2 103.5 91 121.2 107.1 l4.6 4.3 -5.1 0 c-4.9 0 -5.4 -0.3 -11.5 -5.9z"/>
 </g>
</svg>